<mxfile host="app.diagrams.net" modified="2023-02-27T09:12:51.044Z" agent="5.0 (Windows NT 10.0; Win64; x64) AppleWebKit/537.36 (KHTML, like Gecko) Chrome/110.0.0.0 Safari/537.36" etag="QVF7Yr35hgbuwTmwuoWU" version="20.8.22" type="github">
  <diagram name="Page-1" id="tdkMUVKQRSvlwCYXkxpl">
    <mxGraphModel dx="1735" dy="452" grid="1" gridSize="10" guides="1" tooltips="1" connect="1" arrows="1" fold="1" page="1" pageScale="1" pageWidth="850" pageHeight="1100" math="0" shadow="0">
      <root>
        <mxCell id="0" />
        <mxCell id="1" parent="0" />
        <mxCell id="k-AtxNnL5Cw1fRX9omK2-8" value="" style="ellipse;whiteSpace=wrap;html=1;aspect=fixed;fillColor=#f8cecc;strokeColor=#b85450;" vertex="1" parent="1">
          <mxGeometry x="80" y="320" width="40" height="40" as="geometry" />
        </mxCell>
        <mxCell id="k-AtxNnL5Cw1fRX9omK2-46" value="" style="ellipse;whiteSpace=wrap;html=1;aspect=fixed;fillColor=#f5f5f5;fontColor=#333333;strokeColor=#666666;" vertex="1" parent="1">
          <mxGeometry x="160" y="320" width="40" height="40" as="geometry" />
        </mxCell>
        <mxCell id="k-AtxNnL5Cw1fRX9omK2-47" value="" style="ellipse;whiteSpace=wrap;html=1;aspect=fixed;fillColor=#f8cecc;strokeColor=#b85450;" vertex="1" parent="1">
          <mxGeometry x="240" y="320" width="40" height="40" as="geometry" />
        </mxCell>
        <mxCell id="k-AtxNnL5Cw1fRX9omK2-48" value="" style="ellipse;whiteSpace=wrap;html=1;aspect=fixed;fillColor=#dae8fc;strokeColor=#6c8ebf;" vertex="1" parent="1">
          <mxGeometry x="320" y="320" width="40" height="40" as="geometry" />
        </mxCell>
        <mxCell id="k-AtxNnL5Cw1fRX9omK2-49" value="" style="ellipse;whiteSpace=wrap;html=1;aspect=fixed;fillColor=#dae8fc;strokeColor=#6c8ebf;" vertex="1" parent="1">
          <mxGeometry x="400" y="320" width="40" height="40" as="geometry" />
        </mxCell>
        <mxCell id="k-AtxNnL5Cw1fRX9omK2-50" value="" style="ellipse;whiteSpace=wrap;html=1;aspect=fixed;fillColor=#dae8fc;strokeColor=#6c8ebf;" vertex="1" parent="1">
          <mxGeometry x="480" y="320" width="40" height="40" as="geometry" />
        </mxCell>
        <mxCell id="k-AtxNnL5Cw1fRX9omK2-51" value="" style="ellipse;whiteSpace=wrap;html=1;aspect=fixed;fillColor=#f8cecc;strokeColor=#b85450;fontColor=#f8cecc;" vertex="1" parent="1">
          <mxGeometry x="560" y="320" width="40" height="40" as="geometry" />
        </mxCell>
        <mxCell id="k-AtxNnL5Cw1fRX9omK2-52" value="" style="ellipse;whiteSpace=wrap;html=1;aspect=fixed;fillColor=#dae8fc;strokeColor=#6c8ebf;" vertex="1" parent="1">
          <mxGeometry x="640" y="320" width="40" height="40" as="geometry" />
        </mxCell>
        <mxCell id="k-AtxNnL5Cw1fRX9omK2-53" value="" style="ellipse;whiteSpace=wrap;html=1;aspect=fixed;" vertex="1" parent="1">
          <mxGeometry x="120" y="240" width="40" height="40" as="geometry" />
        </mxCell>
        <mxCell id="k-AtxNnL5Cw1fRX9omK2-54" value="" style="ellipse;whiteSpace=wrap;html=1;aspect=fixed;" vertex="1" parent="1">
          <mxGeometry x="280" y="240" width="40" height="40" as="geometry" />
        </mxCell>
        <mxCell id="k-AtxNnL5Cw1fRX9omK2-55" value="" style="ellipse;whiteSpace=wrap;html=1;aspect=fixed;" vertex="1" parent="1">
          <mxGeometry x="440" y="240" width="40" height="40" as="geometry" />
        </mxCell>
        <mxCell id="k-AtxNnL5Cw1fRX9omK2-56" value="" style="ellipse;whiteSpace=wrap;html=1;aspect=fixed;" vertex="1" parent="1">
          <mxGeometry x="600" y="240" width="40" height="40" as="geometry" />
        </mxCell>
        <mxCell id="k-AtxNnL5Cw1fRX9omK2-57" value="" style="ellipse;whiteSpace=wrap;html=1;aspect=fixed;" vertex="1" parent="1">
          <mxGeometry x="200" y="160" width="40" height="40" as="geometry" />
        </mxCell>
        <mxCell id="k-AtxNnL5Cw1fRX9omK2-58" value="" style="ellipse;whiteSpace=wrap;html=1;aspect=fixed;" vertex="1" parent="1">
          <mxGeometry x="520" y="160" width="40" height="40" as="geometry" />
        </mxCell>
        <mxCell id="k-AtxNnL5Cw1fRX9omK2-59" value="" style="ellipse;whiteSpace=wrap;html=1;aspect=fixed;" vertex="1" parent="1">
          <mxGeometry x="360" y="80" width="40" height="40" as="geometry" />
        </mxCell>
        <mxCell id="k-AtxNnL5Cw1fRX9omK2-60" value="" style="endArrow=none;html=1;rounded=0;exitX=1;exitY=0;exitDx=0;exitDy=0;entryX=0;entryY=0.5;entryDx=0;entryDy=0;" edge="1" parent="1" source="k-AtxNnL5Cw1fRX9omK2-57" target="k-AtxNnL5Cw1fRX9omK2-59">
          <mxGeometry width="50" height="50" relative="1" as="geometry">
            <mxPoint x="400" y="260" as="sourcePoint" />
            <mxPoint x="450" y="210" as="targetPoint" />
          </mxGeometry>
        </mxCell>
        <mxCell id="k-AtxNnL5Cw1fRX9omK2-62" value="" style="endArrow=none;html=1;rounded=0;exitX=0;exitY=0;exitDx=0;exitDy=0;entryX=1;entryY=0.5;entryDx=0;entryDy=0;" edge="1" parent="1" source="k-AtxNnL5Cw1fRX9omK2-58" target="k-AtxNnL5Cw1fRX9omK2-59">
          <mxGeometry width="50" height="50" relative="1" as="geometry">
            <mxPoint x="400" y="260" as="sourcePoint" />
            <mxPoint x="450" y="210" as="targetPoint" />
          </mxGeometry>
        </mxCell>
        <mxCell id="k-AtxNnL5Cw1fRX9omK2-63" value="" style="endArrow=none;html=1;rounded=0;exitX=1;exitY=0;exitDx=0;exitDy=0;entryX=0;entryY=1;entryDx=0;entryDy=0;" edge="1" parent="1" source="k-AtxNnL5Cw1fRX9omK2-53" target="k-AtxNnL5Cw1fRX9omK2-57">
          <mxGeometry width="50" height="50" relative="1" as="geometry">
            <mxPoint x="400" y="260" as="sourcePoint" />
            <mxPoint x="450" y="210" as="targetPoint" />
          </mxGeometry>
        </mxCell>
        <mxCell id="k-AtxNnL5Cw1fRX9omK2-64" value="" style="endArrow=none;html=1;rounded=0;exitX=1;exitY=1;exitDx=0;exitDy=0;entryX=0;entryY=0;entryDx=0;entryDy=0;" edge="1" parent="1" source="k-AtxNnL5Cw1fRX9omK2-57" target="k-AtxNnL5Cw1fRX9omK2-54">
          <mxGeometry width="50" height="50" relative="1" as="geometry">
            <mxPoint x="400" y="260" as="sourcePoint" />
            <mxPoint x="450" y="210" as="targetPoint" />
          </mxGeometry>
        </mxCell>
        <mxCell id="k-AtxNnL5Cw1fRX9omK2-65" value="" style="endArrow=none;html=1;rounded=0;entryX=0;entryY=1;entryDx=0;entryDy=0;exitX=1;exitY=0;exitDx=0;exitDy=0;" edge="1" parent="1" source="k-AtxNnL5Cw1fRX9omK2-55" target="k-AtxNnL5Cw1fRX9omK2-58">
          <mxGeometry width="50" height="50" relative="1" as="geometry">
            <mxPoint x="400" y="260" as="sourcePoint" />
            <mxPoint x="450" y="210" as="targetPoint" />
          </mxGeometry>
        </mxCell>
        <mxCell id="k-AtxNnL5Cw1fRX9omK2-66" value="" style="endArrow=none;html=1;rounded=0;entryX=1;entryY=1;entryDx=0;entryDy=0;exitX=0;exitY=0;exitDx=0;exitDy=0;" edge="1" parent="1" source="k-AtxNnL5Cw1fRX9omK2-56" target="k-AtxNnL5Cw1fRX9omK2-58">
          <mxGeometry width="50" height="50" relative="1" as="geometry">
            <mxPoint x="400" y="260" as="sourcePoint" />
            <mxPoint x="450" y="210" as="targetPoint" />
          </mxGeometry>
        </mxCell>
        <mxCell id="k-AtxNnL5Cw1fRX9omK2-67" value="" style="endArrow=none;html=1;rounded=0;exitX=1;exitY=0;exitDx=0;exitDy=0;entryX=0.5;entryY=1;entryDx=0;entryDy=0;" edge="1" parent="1" source="k-AtxNnL5Cw1fRX9omK2-8" target="k-AtxNnL5Cw1fRX9omK2-53">
          <mxGeometry width="50" height="50" relative="1" as="geometry">
            <mxPoint x="400" y="260" as="sourcePoint" />
            <mxPoint x="450" y="210" as="targetPoint" />
          </mxGeometry>
        </mxCell>
        <mxCell id="k-AtxNnL5Cw1fRX9omK2-68" value="" style="endArrow=none;html=1;rounded=0;exitX=0;exitY=0;exitDx=0;exitDy=0;entryX=0.5;entryY=1;entryDx=0;entryDy=0;" edge="1" parent="1" source="k-AtxNnL5Cw1fRX9omK2-46" target="k-AtxNnL5Cw1fRX9omK2-53">
          <mxGeometry width="50" height="50" relative="1" as="geometry">
            <mxPoint x="400" y="260" as="sourcePoint" />
            <mxPoint x="450" y="210" as="targetPoint" />
          </mxGeometry>
        </mxCell>
        <mxCell id="k-AtxNnL5Cw1fRX9omK2-69" value="" style="endArrow=none;html=1;rounded=0;exitX=0.5;exitY=1;exitDx=0;exitDy=0;entryX=1;entryY=0;entryDx=0;entryDy=0;" edge="1" parent="1" source="k-AtxNnL5Cw1fRX9omK2-54" target="k-AtxNnL5Cw1fRX9omK2-47">
          <mxGeometry width="50" height="50" relative="1" as="geometry">
            <mxPoint x="400" y="260" as="sourcePoint" />
            <mxPoint x="450" y="210" as="targetPoint" />
          </mxGeometry>
        </mxCell>
        <mxCell id="k-AtxNnL5Cw1fRX9omK2-70" value="" style="endArrow=none;html=1;rounded=0;exitX=0.5;exitY=1;exitDx=0;exitDy=0;entryX=0;entryY=0;entryDx=0;entryDy=0;" edge="1" parent="1" source="k-AtxNnL5Cw1fRX9omK2-54" target="k-AtxNnL5Cw1fRX9omK2-48">
          <mxGeometry width="50" height="50" relative="1" as="geometry">
            <mxPoint x="400" y="260" as="sourcePoint" />
            <mxPoint x="450" y="210" as="targetPoint" />
          </mxGeometry>
        </mxCell>
        <mxCell id="k-AtxNnL5Cw1fRX9omK2-71" value="" style="endArrow=none;html=1;rounded=0;exitX=0.5;exitY=1;exitDx=0;exitDy=0;entryX=0;entryY=0;entryDx=0;entryDy=0;" edge="1" parent="1" source="k-AtxNnL5Cw1fRX9omK2-55" target="k-AtxNnL5Cw1fRX9omK2-50">
          <mxGeometry width="50" height="50" relative="1" as="geometry">
            <mxPoint x="400" y="260" as="sourcePoint" />
            <mxPoint x="450" y="210" as="targetPoint" />
          </mxGeometry>
        </mxCell>
        <mxCell id="k-AtxNnL5Cw1fRX9omK2-72" value="" style="endArrow=none;html=1;rounded=0;exitX=1;exitY=0;exitDx=0;exitDy=0;entryX=0.5;entryY=1;entryDx=0;entryDy=0;" edge="1" parent="1" source="k-AtxNnL5Cw1fRX9omK2-49" target="k-AtxNnL5Cw1fRX9omK2-55">
          <mxGeometry width="50" height="50" relative="1" as="geometry">
            <mxPoint x="400" y="260" as="sourcePoint" />
            <mxPoint x="450" y="210" as="targetPoint" />
          </mxGeometry>
        </mxCell>
        <mxCell id="k-AtxNnL5Cw1fRX9omK2-73" value="" style="endArrow=none;html=1;rounded=0;exitX=0.5;exitY=1;exitDx=0;exitDy=0;entryX=1;entryY=0;entryDx=0;entryDy=0;" edge="1" parent="1" source="k-AtxNnL5Cw1fRX9omK2-56" target="k-AtxNnL5Cw1fRX9omK2-51">
          <mxGeometry width="50" height="50" relative="1" as="geometry">
            <mxPoint x="400" y="260" as="sourcePoint" />
            <mxPoint x="450" y="210" as="targetPoint" />
          </mxGeometry>
        </mxCell>
        <mxCell id="k-AtxNnL5Cw1fRX9omK2-74" value="" style="endArrow=none;html=1;rounded=0;exitX=0.5;exitY=1;exitDx=0;exitDy=0;entryX=0;entryY=0;entryDx=0;entryDy=0;" edge="1" parent="1" source="k-AtxNnL5Cw1fRX9omK2-56" target="k-AtxNnL5Cw1fRX9omK2-52">
          <mxGeometry width="50" height="50" relative="1" as="geometry">
            <mxPoint x="400" y="260" as="sourcePoint" />
            <mxPoint x="450" y="210" as="targetPoint" />
          </mxGeometry>
        </mxCell>
        <mxCell id="k-AtxNnL5Cw1fRX9omK2-75" value="Minimax" style="text;html=1;strokeColor=none;fillColor=none;align=center;verticalAlign=middle;whiteSpace=wrap;rounded=0;fontStyle=1;fontSize=18;" vertex="1" parent="1">
          <mxGeometry x="350" y="30" width="60" height="30" as="geometry" />
        </mxCell>
        <mxCell id="k-AtxNnL5Cw1fRX9omK2-76" value="" style="endArrow=none;html=1;rounded=0;fontSize=18;" edge="1" parent="1">
          <mxGeometry width="50" height="50" relative="1" as="geometry">
            <mxPoint x="110" y="140" as="sourcePoint" />
            <mxPoint x="690" y="140" as="targetPoint" />
          </mxGeometry>
        </mxCell>
        <mxCell id="k-AtxNnL5Cw1fRX9omK2-78" value="Red" style="text;html=1;align=center;verticalAlign=middle;whiteSpace=wrap;rounded=0;fontSize=18;fontColor=#f80d0d;" vertex="1" parent="1">
          <mxGeometry x="130" y="85" width="60" height="30" as="geometry" />
        </mxCell>
        <mxCell id="k-AtxNnL5Cw1fRX9omK2-79" value="Red" style="text;html=1;align=center;verticalAlign=middle;whiteSpace=wrap;rounded=0;fontSize=18;fontColor=#f80d0d;" vertex="1" parent="1">
          <mxGeometry x="10" y="260" width="60" height="30" as="geometry" />
        </mxCell>
        <mxCell id="k-AtxNnL5Cw1fRX9omK2-80" value="" style="endArrow=none;html=1;rounded=0;fontSize=18;" edge="1" parent="1">
          <mxGeometry width="50" height="50" relative="1" as="geometry">
            <mxPoint x="30" y="220" as="sourcePoint" />
            <mxPoint x="750" y="220" as="targetPoint" />
          </mxGeometry>
        </mxCell>
        <mxCell id="k-AtxNnL5Cw1fRX9omK2-81" value="" style="endArrow=none;html=1;rounded=0;fontSize=18;" edge="1" parent="1">
          <mxGeometry width="50" height="50" relative="1" as="geometry">
            <mxPoint x="-20" y="300" as="sourcePoint" />
            <mxPoint x="830" y="300" as="targetPoint" />
          </mxGeometry>
        </mxCell>
        <mxCell id="k-AtxNnL5Cw1fRX9omK2-82" value="&lt;font color=&quot;#0d28f8&quot;&gt;Blue&lt;/font&gt;" style="text;html=1;align=center;verticalAlign=middle;whiteSpace=wrap;rounded=0;fontSize=18;fontColor=#f80d0d;" vertex="1" parent="1">
          <mxGeometry x="50" y="180" width="60" height="30" as="geometry" />
        </mxCell>
        <mxCell id="k-AtxNnL5Cw1fRX9omK2-83" value="" style="ellipse;whiteSpace=wrap;html=1;aspect=fixed;fillColor=#f8cecc;strokeColor=#b85450;" vertex="1" parent="1">
          <mxGeometry x="80" y="730" width="40" height="40" as="geometry" />
        </mxCell>
        <mxCell id="k-AtxNnL5Cw1fRX9omK2-84" value="" style="ellipse;whiteSpace=wrap;html=1;aspect=fixed;fillColor=#f5f5f5;fontColor=#333333;strokeColor=#666666;" vertex="1" parent="1">
          <mxGeometry x="160" y="730" width="40" height="40" as="geometry" />
        </mxCell>
        <mxCell id="k-AtxNnL5Cw1fRX9omK2-85" value="" style="ellipse;whiteSpace=wrap;html=1;aspect=fixed;fillColor=#f8cecc;strokeColor=#b85450;" vertex="1" parent="1">
          <mxGeometry x="240" y="730" width="40" height="40" as="geometry" />
        </mxCell>
        <mxCell id="k-AtxNnL5Cw1fRX9omK2-86" value="" style="ellipse;whiteSpace=wrap;html=1;aspect=fixed;fillColor=#dae8fc;strokeColor=#6c8ebf;" vertex="1" parent="1">
          <mxGeometry x="320" y="730" width="40" height="40" as="geometry" />
        </mxCell>
        <mxCell id="k-AtxNnL5Cw1fRX9omK2-87" value="" style="ellipse;whiteSpace=wrap;html=1;aspect=fixed;fillColor=#dae8fc;strokeColor=#6c8ebf;" vertex="1" parent="1">
          <mxGeometry x="400" y="730" width="40" height="40" as="geometry" />
        </mxCell>
        <mxCell id="k-AtxNnL5Cw1fRX9omK2-88" value="" style="ellipse;whiteSpace=wrap;html=1;aspect=fixed;fillColor=#dae8fc;strokeColor=#6c8ebf;" vertex="1" parent="1">
          <mxGeometry x="480" y="730" width="40" height="40" as="geometry" />
        </mxCell>
        <mxCell id="k-AtxNnL5Cw1fRX9omK2-89" value="" style="ellipse;whiteSpace=wrap;html=1;aspect=fixed;fillColor=#f8cecc;strokeColor=#b85450;fontColor=#f8cecc;" vertex="1" parent="1">
          <mxGeometry x="560" y="730" width="40" height="40" as="geometry" />
        </mxCell>
        <mxCell id="k-AtxNnL5Cw1fRX9omK2-90" value="" style="ellipse;whiteSpace=wrap;html=1;aspect=fixed;fillColor=#dae8fc;strokeColor=#6c8ebf;" vertex="1" parent="1">
          <mxGeometry x="640" y="730" width="40" height="40" as="geometry" />
        </mxCell>
        <mxCell id="k-AtxNnL5Cw1fRX9omK2-91" value="" style="ellipse;whiteSpace=wrap;html=1;aspect=fixed;fillColor=#f8cecc;strokeColor=#b85450;" vertex="1" parent="1">
          <mxGeometry x="120" y="650" width="40" height="40" as="geometry" />
        </mxCell>
        <mxCell id="k-AtxNnL5Cw1fRX9omK2-92" value="" style="ellipse;whiteSpace=wrap;html=1;aspect=fixed;fillColor=#f8cecc;strokeColor=#b85450;" vertex="1" parent="1">
          <mxGeometry x="280" y="650" width="40" height="40" as="geometry" />
        </mxCell>
        <mxCell id="k-AtxNnL5Cw1fRX9omK2-93" value="" style="ellipse;whiteSpace=wrap;html=1;aspect=fixed;fillColor=#dae8fc;strokeColor=#6c8ebf;" vertex="1" parent="1">
          <mxGeometry x="440" y="650" width="40" height="40" as="geometry" />
        </mxCell>
        <mxCell id="k-AtxNnL5Cw1fRX9omK2-94" value="" style="ellipse;whiteSpace=wrap;html=1;aspect=fixed;fillColor=#f8cecc;strokeColor=#b85450;" vertex="1" parent="1">
          <mxGeometry x="600" y="650" width="40" height="40" as="geometry" />
        </mxCell>
        <mxCell id="k-AtxNnL5Cw1fRX9omK2-95" value="" style="ellipse;whiteSpace=wrap;html=1;aspect=fixed;" vertex="1" parent="1">
          <mxGeometry x="200" y="570" width="40" height="40" as="geometry" />
        </mxCell>
        <mxCell id="k-AtxNnL5Cw1fRX9omK2-96" value="" style="ellipse;whiteSpace=wrap;html=1;aspect=fixed;" vertex="1" parent="1">
          <mxGeometry x="520" y="570" width="40" height="40" as="geometry" />
        </mxCell>
        <mxCell id="k-AtxNnL5Cw1fRX9omK2-97" value="" style="ellipse;whiteSpace=wrap;html=1;aspect=fixed;" vertex="1" parent="1">
          <mxGeometry x="360" y="490" width="40" height="40" as="geometry" />
        </mxCell>
        <mxCell id="k-AtxNnL5Cw1fRX9omK2-98" value="" style="endArrow=none;html=1;rounded=0;exitX=1;exitY=0;exitDx=0;exitDy=0;entryX=0;entryY=0.5;entryDx=0;entryDy=0;" edge="1" source="k-AtxNnL5Cw1fRX9omK2-95" target="k-AtxNnL5Cw1fRX9omK2-97" parent="1">
          <mxGeometry width="50" height="50" relative="1" as="geometry">
            <mxPoint x="400" y="670" as="sourcePoint" />
            <mxPoint x="450" y="620" as="targetPoint" />
          </mxGeometry>
        </mxCell>
        <mxCell id="k-AtxNnL5Cw1fRX9omK2-99" value="" style="endArrow=none;html=1;rounded=0;exitX=0;exitY=0;exitDx=0;exitDy=0;entryX=1;entryY=0.5;entryDx=0;entryDy=0;" edge="1" source="k-AtxNnL5Cw1fRX9omK2-96" target="k-AtxNnL5Cw1fRX9omK2-97" parent="1">
          <mxGeometry width="50" height="50" relative="1" as="geometry">
            <mxPoint x="400" y="670" as="sourcePoint" />
            <mxPoint x="450" y="620" as="targetPoint" />
          </mxGeometry>
        </mxCell>
        <mxCell id="k-AtxNnL5Cw1fRX9omK2-100" value="" style="endArrow=none;html=1;rounded=0;exitX=1;exitY=0;exitDx=0;exitDy=0;entryX=0;entryY=1;entryDx=0;entryDy=0;" edge="1" source="k-AtxNnL5Cw1fRX9omK2-91" target="k-AtxNnL5Cw1fRX9omK2-95" parent="1">
          <mxGeometry width="50" height="50" relative="1" as="geometry">
            <mxPoint x="400" y="670" as="sourcePoint" />
            <mxPoint x="450" y="620" as="targetPoint" />
          </mxGeometry>
        </mxCell>
        <mxCell id="k-AtxNnL5Cw1fRX9omK2-101" value="" style="endArrow=none;html=1;rounded=0;exitX=1;exitY=1;exitDx=0;exitDy=0;entryX=0;entryY=0;entryDx=0;entryDy=0;" edge="1" source="k-AtxNnL5Cw1fRX9omK2-95" target="k-AtxNnL5Cw1fRX9omK2-92" parent="1">
          <mxGeometry width="50" height="50" relative="1" as="geometry">
            <mxPoint x="400" y="670" as="sourcePoint" />
            <mxPoint x="450" y="620" as="targetPoint" />
          </mxGeometry>
        </mxCell>
        <mxCell id="k-AtxNnL5Cw1fRX9omK2-102" value="" style="endArrow=none;html=1;rounded=0;entryX=0;entryY=1;entryDx=0;entryDy=0;exitX=1;exitY=0;exitDx=0;exitDy=0;" edge="1" source="k-AtxNnL5Cw1fRX9omK2-93" target="k-AtxNnL5Cw1fRX9omK2-96" parent="1">
          <mxGeometry width="50" height="50" relative="1" as="geometry">
            <mxPoint x="400" y="670" as="sourcePoint" />
            <mxPoint x="450" y="620" as="targetPoint" />
          </mxGeometry>
        </mxCell>
        <mxCell id="k-AtxNnL5Cw1fRX9omK2-103" value="" style="endArrow=none;html=1;rounded=0;entryX=1;entryY=1;entryDx=0;entryDy=0;exitX=0;exitY=0;exitDx=0;exitDy=0;" edge="1" source="k-AtxNnL5Cw1fRX9omK2-94" target="k-AtxNnL5Cw1fRX9omK2-96" parent="1">
          <mxGeometry width="50" height="50" relative="1" as="geometry">
            <mxPoint x="400" y="670" as="sourcePoint" />
            <mxPoint x="450" y="620" as="targetPoint" />
          </mxGeometry>
        </mxCell>
        <mxCell id="k-AtxNnL5Cw1fRX9omK2-104" value="" style="endArrow=none;html=1;rounded=0;exitX=1;exitY=0;exitDx=0;exitDy=0;entryX=0.5;entryY=1;entryDx=0;entryDy=0;" edge="1" source="k-AtxNnL5Cw1fRX9omK2-83" target="k-AtxNnL5Cw1fRX9omK2-91" parent="1">
          <mxGeometry width="50" height="50" relative="1" as="geometry">
            <mxPoint x="400" y="670" as="sourcePoint" />
            <mxPoint x="450" y="620" as="targetPoint" />
          </mxGeometry>
        </mxCell>
        <mxCell id="k-AtxNnL5Cw1fRX9omK2-105" value="" style="endArrow=none;html=1;rounded=0;exitX=0;exitY=0;exitDx=0;exitDy=0;entryX=0.5;entryY=1;entryDx=0;entryDy=0;" edge="1" source="k-AtxNnL5Cw1fRX9omK2-84" target="k-AtxNnL5Cw1fRX9omK2-91" parent="1">
          <mxGeometry width="50" height="50" relative="1" as="geometry">
            <mxPoint x="400" y="670" as="sourcePoint" />
            <mxPoint x="450" y="620" as="targetPoint" />
          </mxGeometry>
        </mxCell>
        <mxCell id="k-AtxNnL5Cw1fRX9omK2-106" value="" style="endArrow=none;html=1;rounded=0;exitX=0.5;exitY=1;exitDx=0;exitDy=0;entryX=1;entryY=0;entryDx=0;entryDy=0;" edge="1" source="k-AtxNnL5Cw1fRX9omK2-92" target="k-AtxNnL5Cw1fRX9omK2-85" parent="1">
          <mxGeometry width="50" height="50" relative="1" as="geometry">
            <mxPoint x="400" y="670" as="sourcePoint" />
            <mxPoint x="450" y="620" as="targetPoint" />
          </mxGeometry>
        </mxCell>
        <mxCell id="k-AtxNnL5Cw1fRX9omK2-107" value="" style="endArrow=none;html=1;rounded=0;exitX=0.5;exitY=1;exitDx=0;exitDy=0;entryX=0;entryY=0;entryDx=0;entryDy=0;" edge="1" source="k-AtxNnL5Cw1fRX9omK2-92" target="k-AtxNnL5Cw1fRX9omK2-86" parent="1">
          <mxGeometry width="50" height="50" relative="1" as="geometry">
            <mxPoint x="400" y="670" as="sourcePoint" />
            <mxPoint x="450" y="620" as="targetPoint" />
          </mxGeometry>
        </mxCell>
        <mxCell id="k-AtxNnL5Cw1fRX9omK2-108" value="" style="endArrow=none;html=1;rounded=0;exitX=0.5;exitY=1;exitDx=0;exitDy=0;entryX=0;entryY=0;entryDx=0;entryDy=0;" edge="1" source="k-AtxNnL5Cw1fRX9omK2-93" target="k-AtxNnL5Cw1fRX9omK2-88" parent="1">
          <mxGeometry width="50" height="50" relative="1" as="geometry">
            <mxPoint x="400" y="670" as="sourcePoint" />
            <mxPoint x="450" y="620" as="targetPoint" />
          </mxGeometry>
        </mxCell>
        <mxCell id="k-AtxNnL5Cw1fRX9omK2-109" value="" style="endArrow=none;html=1;rounded=0;exitX=1;exitY=0;exitDx=0;exitDy=0;entryX=0.5;entryY=1;entryDx=0;entryDy=0;" edge="1" source="k-AtxNnL5Cw1fRX9omK2-87" target="k-AtxNnL5Cw1fRX9omK2-93" parent="1">
          <mxGeometry width="50" height="50" relative="1" as="geometry">
            <mxPoint x="400" y="670" as="sourcePoint" />
            <mxPoint x="450" y="620" as="targetPoint" />
          </mxGeometry>
        </mxCell>
        <mxCell id="k-AtxNnL5Cw1fRX9omK2-110" value="" style="endArrow=none;html=1;rounded=0;exitX=0.5;exitY=1;exitDx=0;exitDy=0;entryX=1;entryY=0;entryDx=0;entryDy=0;" edge="1" source="k-AtxNnL5Cw1fRX9omK2-94" target="k-AtxNnL5Cw1fRX9omK2-89" parent="1">
          <mxGeometry width="50" height="50" relative="1" as="geometry">
            <mxPoint x="400" y="670" as="sourcePoint" />
            <mxPoint x="450" y="620" as="targetPoint" />
          </mxGeometry>
        </mxCell>
        <mxCell id="k-AtxNnL5Cw1fRX9omK2-111" value="" style="endArrow=none;html=1;rounded=0;exitX=0.5;exitY=1;exitDx=0;exitDy=0;entryX=0;entryY=0;entryDx=0;entryDy=0;" edge="1" source="k-AtxNnL5Cw1fRX9omK2-94" target="k-AtxNnL5Cw1fRX9omK2-90" parent="1">
          <mxGeometry width="50" height="50" relative="1" as="geometry">
            <mxPoint x="400" y="670" as="sourcePoint" />
            <mxPoint x="450" y="620" as="targetPoint" />
          </mxGeometry>
        </mxCell>
        <mxCell id="k-AtxNnL5Cw1fRX9omK2-112" value="Minimax" style="text;html=1;strokeColor=none;fillColor=none;align=center;verticalAlign=middle;whiteSpace=wrap;rounded=0;fontStyle=1;fontSize=18;" vertex="1" parent="1">
          <mxGeometry x="350" y="440" width="60" height="30" as="geometry" />
        </mxCell>
        <mxCell id="k-AtxNnL5Cw1fRX9omK2-113" value="" style="endArrow=none;html=1;rounded=0;fontSize=18;" edge="1" parent="1">
          <mxGeometry width="50" height="50" relative="1" as="geometry">
            <mxPoint x="110" y="550" as="sourcePoint" />
            <mxPoint x="680" y="550" as="targetPoint" />
          </mxGeometry>
        </mxCell>
        <mxCell id="k-AtxNnL5Cw1fRX9omK2-114" value="Red" style="text;html=1;align=center;verticalAlign=middle;whiteSpace=wrap;rounded=0;fontSize=18;fontColor=#f80d0d;" vertex="1" parent="1">
          <mxGeometry x="130" y="495" width="60" height="30" as="geometry" />
        </mxCell>
        <mxCell id="k-AtxNnL5Cw1fRX9omK2-115" value="Red" style="text;html=1;align=center;verticalAlign=middle;whiteSpace=wrap;rounded=0;fontSize=18;fontColor=#f80d0d;" vertex="1" parent="1">
          <mxGeometry x="10" y="670" width="60" height="30" as="geometry" />
        </mxCell>
        <mxCell id="k-AtxNnL5Cw1fRX9omK2-116" value="" style="endArrow=none;html=1;rounded=0;fontSize=18;" edge="1" parent="1">
          <mxGeometry width="50" height="50" relative="1" as="geometry">
            <mxPoint x="30" y="630" as="sourcePoint" />
            <mxPoint x="750" y="630" as="targetPoint" />
          </mxGeometry>
        </mxCell>
        <mxCell id="k-AtxNnL5Cw1fRX9omK2-117" value="" style="endArrow=none;html=1;rounded=0;fontSize=18;" edge="1" parent="1">
          <mxGeometry width="50" height="50" relative="1" as="geometry">
            <mxPoint x="-20" y="710" as="sourcePoint" />
            <mxPoint x="820" y="710" as="targetPoint" />
          </mxGeometry>
        </mxCell>
        <mxCell id="k-AtxNnL5Cw1fRX9omK2-118" value="&lt;font color=&quot;#0d28f8&quot;&gt;Blue&lt;/font&gt;" style="text;html=1;align=center;verticalAlign=middle;whiteSpace=wrap;rounded=0;fontSize=18;fontColor=#f80d0d;" vertex="1" parent="1">
          <mxGeometry x="50" y="590" width="60" height="30" as="geometry" />
        </mxCell>
        <mxCell id="k-AtxNnL5Cw1fRX9omK2-119" value="" style="ellipse;whiteSpace=wrap;html=1;aspect=fixed;fillColor=#f8cecc;strokeColor=#b85450;" vertex="1" parent="1">
          <mxGeometry x="970" y="730" width="40" height="40" as="geometry" />
        </mxCell>
        <mxCell id="k-AtxNnL5Cw1fRX9omK2-120" value="" style="ellipse;whiteSpace=wrap;html=1;aspect=fixed;fillColor=#f5f5f5;fontColor=#333333;strokeColor=#666666;" vertex="1" parent="1">
          <mxGeometry x="1050" y="730" width="40" height="40" as="geometry" />
        </mxCell>
        <mxCell id="k-AtxNnL5Cw1fRX9omK2-121" value="" style="ellipse;whiteSpace=wrap;html=1;aspect=fixed;fillColor=#f8cecc;strokeColor=#b85450;" vertex="1" parent="1">
          <mxGeometry x="1130" y="730" width="40" height="40" as="geometry" />
        </mxCell>
        <mxCell id="k-AtxNnL5Cw1fRX9omK2-122" value="" style="ellipse;whiteSpace=wrap;html=1;aspect=fixed;fillColor=#dae8fc;strokeColor=#6c8ebf;" vertex="1" parent="1">
          <mxGeometry x="1210" y="730" width="40" height="40" as="geometry" />
        </mxCell>
        <mxCell id="k-AtxNnL5Cw1fRX9omK2-123" value="" style="ellipse;whiteSpace=wrap;html=1;aspect=fixed;fillColor=#dae8fc;strokeColor=#6c8ebf;" vertex="1" parent="1">
          <mxGeometry x="1290" y="730" width="40" height="40" as="geometry" />
        </mxCell>
        <mxCell id="k-AtxNnL5Cw1fRX9omK2-124" value="" style="ellipse;whiteSpace=wrap;html=1;aspect=fixed;fillColor=#dae8fc;strokeColor=#6c8ebf;" vertex="1" parent="1">
          <mxGeometry x="1370" y="730" width="40" height="40" as="geometry" />
        </mxCell>
        <mxCell id="k-AtxNnL5Cw1fRX9omK2-125" value="" style="ellipse;whiteSpace=wrap;html=1;aspect=fixed;fillColor=#f8cecc;strokeColor=#b85450;fontColor=#f8cecc;" vertex="1" parent="1">
          <mxGeometry x="1450" y="730" width="40" height="40" as="geometry" />
        </mxCell>
        <mxCell id="k-AtxNnL5Cw1fRX9omK2-126" value="" style="ellipse;whiteSpace=wrap;html=1;aspect=fixed;fillColor=#dae8fc;strokeColor=#6c8ebf;" vertex="1" parent="1">
          <mxGeometry x="1530" y="730" width="40" height="40" as="geometry" />
        </mxCell>
        <mxCell id="k-AtxNnL5Cw1fRX9omK2-127" value="" style="ellipse;whiteSpace=wrap;html=1;aspect=fixed;fillColor=#f8cecc;strokeColor=#b85450;" vertex="1" parent="1">
          <mxGeometry x="1010" y="650" width="40" height="40" as="geometry" />
        </mxCell>
        <mxCell id="k-AtxNnL5Cw1fRX9omK2-128" value="" style="ellipse;whiteSpace=wrap;html=1;aspect=fixed;fillColor=#f8cecc;strokeColor=#b85450;" vertex="1" parent="1">
          <mxGeometry x="1170" y="650" width="40" height="40" as="geometry" />
        </mxCell>
        <mxCell id="k-AtxNnL5Cw1fRX9omK2-129" value="" style="ellipse;whiteSpace=wrap;html=1;aspect=fixed;fillColor=#dae8fc;strokeColor=#6c8ebf;" vertex="1" parent="1">
          <mxGeometry x="1330" y="650" width="40" height="40" as="geometry" />
        </mxCell>
        <mxCell id="k-AtxNnL5Cw1fRX9omK2-130" value="" style="ellipse;whiteSpace=wrap;html=1;aspect=fixed;fillColor=#f8cecc;strokeColor=#b85450;" vertex="1" parent="1">
          <mxGeometry x="1490" y="650" width="40" height="40" as="geometry" />
        </mxCell>
        <mxCell id="k-AtxNnL5Cw1fRX9omK2-131" value="" style="ellipse;whiteSpace=wrap;html=1;aspect=fixed;fillColor=#f8cecc;strokeColor=#b85450;" vertex="1" parent="1">
          <mxGeometry x="1090" y="570" width="40" height="40" as="geometry" />
        </mxCell>
        <mxCell id="k-AtxNnL5Cw1fRX9omK2-132" value="" style="ellipse;whiteSpace=wrap;html=1;aspect=fixed;fillColor=#dae8fc;strokeColor=#6c8ebf;" vertex="1" parent="1">
          <mxGeometry x="1410" y="570" width="40" height="40" as="geometry" />
        </mxCell>
        <mxCell id="k-AtxNnL5Cw1fRX9omK2-133" value="" style="ellipse;whiteSpace=wrap;html=1;aspect=fixed;" vertex="1" parent="1">
          <mxGeometry x="1250" y="490" width="40" height="40" as="geometry" />
        </mxCell>
        <mxCell id="k-AtxNnL5Cw1fRX9omK2-134" value="" style="endArrow=none;html=1;rounded=0;exitX=1;exitY=0;exitDx=0;exitDy=0;entryX=0;entryY=0.5;entryDx=0;entryDy=0;" edge="1" source="k-AtxNnL5Cw1fRX9omK2-131" target="k-AtxNnL5Cw1fRX9omK2-133" parent="1">
          <mxGeometry width="50" height="50" relative="1" as="geometry">
            <mxPoint x="1290" y="670" as="sourcePoint" />
            <mxPoint x="1340" y="620" as="targetPoint" />
          </mxGeometry>
        </mxCell>
        <mxCell id="k-AtxNnL5Cw1fRX9omK2-135" value="" style="endArrow=none;html=1;rounded=0;exitX=0;exitY=0;exitDx=0;exitDy=0;entryX=1;entryY=0.5;entryDx=0;entryDy=0;" edge="1" source="k-AtxNnL5Cw1fRX9omK2-132" target="k-AtxNnL5Cw1fRX9omK2-133" parent="1">
          <mxGeometry width="50" height="50" relative="1" as="geometry">
            <mxPoint x="1290" y="670" as="sourcePoint" />
            <mxPoint x="1340" y="620" as="targetPoint" />
          </mxGeometry>
        </mxCell>
        <mxCell id="k-AtxNnL5Cw1fRX9omK2-136" value="" style="endArrow=none;html=1;rounded=0;exitX=1;exitY=0;exitDx=0;exitDy=0;entryX=0;entryY=1;entryDx=0;entryDy=0;" edge="1" source="k-AtxNnL5Cw1fRX9omK2-127" target="k-AtxNnL5Cw1fRX9omK2-131" parent="1">
          <mxGeometry width="50" height="50" relative="1" as="geometry">
            <mxPoint x="1290" y="670" as="sourcePoint" />
            <mxPoint x="1340" y="620" as="targetPoint" />
          </mxGeometry>
        </mxCell>
        <mxCell id="k-AtxNnL5Cw1fRX9omK2-137" value="" style="endArrow=none;html=1;rounded=0;exitX=1;exitY=1;exitDx=0;exitDy=0;entryX=0;entryY=0;entryDx=0;entryDy=0;" edge="1" source="k-AtxNnL5Cw1fRX9omK2-131" target="k-AtxNnL5Cw1fRX9omK2-128" parent="1">
          <mxGeometry width="50" height="50" relative="1" as="geometry">
            <mxPoint x="1290" y="670" as="sourcePoint" />
            <mxPoint x="1340" y="620" as="targetPoint" />
          </mxGeometry>
        </mxCell>
        <mxCell id="k-AtxNnL5Cw1fRX9omK2-138" value="" style="endArrow=none;html=1;rounded=0;entryX=0;entryY=1;entryDx=0;entryDy=0;exitX=1;exitY=0;exitDx=0;exitDy=0;" edge="1" source="k-AtxNnL5Cw1fRX9omK2-129" target="k-AtxNnL5Cw1fRX9omK2-132" parent="1">
          <mxGeometry width="50" height="50" relative="1" as="geometry">
            <mxPoint x="1290" y="670" as="sourcePoint" />
            <mxPoint x="1340" y="620" as="targetPoint" />
          </mxGeometry>
        </mxCell>
        <mxCell id="k-AtxNnL5Cw1fRX9omK2-139" value="" style="endArrow=none;html=1;rounded=0;entryX=1;entryY=1;entryDx=0;entryDy=0;exitX=0;exitY=0;exitDx=0;exitDy=0;" edge="1" source="k-AtxNnL5Cw1fRX9omK2-130" target="k-AtxNnL5Cw1fRX9omK2-132" parent="1">
          <mxGeometry width="50" height="50" relative="1" as="geometry">
            <mxPoint x="1290" y="670" as="sourcePoint" />
            <mxPoint x="1340" y="620" as="targetPoint" />
          </mxGeometry>
        </mxCell>
        <mxCell id="k-AtxNnL5Cw1fRX9omK2-140" value="" style="endArrow=none;html=1;rounded=0;exitX=1;exitY=0;exitDx=0;exitDy=0;entryX=0.5;entryY=1;entryDx=0;entryDy=0;" edge="1" source="k-AtxNnL5Cw1fRX9omK2-119" target="k-AtxNnL5Cw1fRX9omK2-127" parent="1">
          <mxGeometry width="50" height="50" relative="1" as="geometry">
            <mxPoint x="1290" y="670" as="sourcePoint" />
            <mxPoint x="1340" y="620" as="targetPoint" />
          </mxGeometry>
        </mxCell>
        <mxCell id="k-AtxNnL5Cw1fRX9omK2-141" value="" style="endArrow=none;html=1;rounded=0;exitX=0;exitY=0;exitDx=0;exitDy=0;entryX=0.5;entryY=1;entryDx=0;entryDy=0;" edge="1" source="k-AtxNnL5Cw1fRX9omK2-120" target="k-AtxNnL5Cw1fRX9omK2-127" parent="1">
          <mxGeometry width="50" height="50" relative="1" as="geometry">
            <mxPoint x="1290" y="670" as="sourcePoint" />
            <mxPoint x="1340" y="620" as="targetPoint" />
          </mxGeometry>
        </mxCell>
        <mxCell id="k-AtxNnL5Cw1fRX9omK2-142" value="" style="endArrow=none;html=1;rounded=0;exitX=0.5;exitY=1;exitDx=0;exitDy=0;entryX=1;entryY=0;entryDx=0;entryDy=0;" edge="1" source="k-AtxNnL5Cw1fRX9omK2-128" target="k-AtxNnL5Cw1fRX9omK2-121" parent="1">
          <mxGeometry width="50" height="50" relative="1" as="geometry">
            <mxPoint x="1290" y="670" as="sourcePoint" />
            <mxPoint x="1340" y="620" as="targetPoint" />
          </mxGeometry>
        </mxCell>
        <mxCell id="k-AtxNnL5Cw1fRX9omK2-143" value="" style="endArrow=none;html=1;rounded=0;exitX=0.5;exitY=1;exitDx=0;exitDy=0;entryX=0;entryY=0;entryDx=0;entryDy=0;" edge="1" source="k-AtxNnL5Cw1fRX9omK2-128" target="k-AtxNnL5Cw1fRX9omK2-122" parent="1">
          <mxGeometry width="50" height="50" relative="1" as="geometry">
            <mxPoint x="1290" y="670" as="sourcePoint" />
            <mxPoint x="1340" y="620" as="targetPoint" />
          </mxGeometry>
        </mxCell>
        <mxCell id="k-AtxNnL5Cw1fRX9omK2-144" value="" style="endArrow=none;html=1;rounded=0;exitX=0.5;exitY=1;exitDx=0;exitDy=0;entryX=0;entryY=0;entryDx=0;entryDy=0;" edge="1" source="k-AtxNnL5Cw1fRX9omK2-129" target="k-AtxNnL5Cw1fRX9omK2-124" parent="1">
          <mxGeometry width="50" height="50" relative="1" as="geometry">
            <mxPoint x="1290" y="670" as="sourcePoint" />
            <mxPoint x="1340" y="620" as="targetPoint" />
          </mxGeometry>
        </mxCell>
        <mxCell id="k-AtxNnL5Cw1fRX9omK2-145" value="" style="endArrow=none;html=1;rounded=0;exitX=1;exitY=0;exitDx=0;exitDy=0;entryX=0.5;entryY=1;entryDx=0;entryDy=0;" edge="1" source="k-AtxNnL5Cw1fRX9omK2-123" target="k-AtxNnL5Cw1fRX9omK2-129" parent="1">
          <mxGeometry width="50" height="50" relative="1" as="geometry">
            <mxPoint x="1290" y="670" as="sourcePoint" />
            <mxPoint x="1340" y="620" as="targetPoint" />
          </mxGeometry>
        </mxCell>
        <mxCell id="k-AtxNnL5Cw1fRX9omK2-146" value="" style="endArrow=none;html=1;rounded=0;exitX=0.5;exitY=1;exitDx=0;exitDy=0;entryX=1;entryY=0;entryDx=0;entryDy=0;" edge="1" source="k-AtxNnL5Cw1fRX9omK2-130" target="k-AtxNnL5Cw1fRX9omK2-125" parent="1">
          <mxGeometry width="50" height="50" relative="1" as="geometry">
            <mxPoint x="1290" y="670" as="sourcePoint" />
            <mxPoint x="1340" y="620" as="targetPoint" />
          </mxGeometry>
        </mxCell>
        <mxCell id="k-AtxNnL5Cw1fRX9omK2-147" value="" style="endArrow=none;html=1;rounded=0;exitX=0.5;exitY=1;exitDx=0;exitDy=0;entryX=0;entryY=0;entryDx=0;entryDy=0;" edge="1" source="k-AtxNnL5Cw1fRX9omK2-130" target="k-AtxNnL5Cw1fRX9omK2-126" parent="1">
          <mxGeometry width="50" height="50" relative="1" as="geometry">
            <mxPoint x="1290" y="670" as="sourcePoint" />
            <mxPoint x="1340" y="620" as="targetPoint" />
          </mxGeometry>
        </mxCell>
        <mxCell id="k-AtxNnL5Cw1fRX9omK2-148" value="Minimax" style="text;html=1;strokeColor=none;fillColor=none;align=center;verticalAlign=middle;whiteSpace=wrap;rounded=0;fontStyle=1;fontSize=18;" vertex="1" parent="1">
          <mxGeometry x="1240" y="440" width="60" height="30" as="geometry" />
        </mxCell>
        <mxCell id="k-AtxNnL5Cw1fRX9omK2-149" value="" style="endArrow=none;html=1;rounded=0;fontSize=18;" edge="1" parent="1">
          <mxGeometry width="50" height="50" relative="1" as="geometry">
            <mxPoint x="1000" y="550" as="sourcePoint" />
            <mxPoint x="1570" y="550" as="targetPoint" />
          </mxGeometry>
        </mxCell>
        <mxCell id="k-AtxNnL5Cw1fRX9omK2-150" value="Red" style="text;html=1;align=center;verticalAlign=middle;whiteSpace=wrap;rounded=0;fontSize=18;fontColor=#f80d0d;" vertex="1" parent="1">
          <mxGeometry x="1020" y="495" width="60" height="30" as="geometry" />
        </mxCell>
        <mxCell id="k-AtxNnL5Cw1fRX9omK2-151" value="Red" style="text;html=1;align=center;verticalAlign=middle;whiteSpace=wrap;rounded=0;fontSize=18;fontColor=#f80d0d;" vertex="1" parent="1">
          <mxGeometry x="900" y="670" width="60" height="30" as="geometry" />
        </mxCell>
        <mxCell id="k-AtxNnL5Cw1fRX9omK2-152" value="" style="endArrow=none;html=1;rounded=0;fontSize=18;" edge="1" parent="1">
          <mxGeometry width="50" height="50" relative="1" as="geometry">
            <mxPoint x="920" y="630" as="sourcePoint" />
            <mxPoint x="1640" y="630" as="targetPoint" />
          </mxGeometry>
        </mxCell>
        <mxCell id="k-AtxNnL5Cw1fRX9omK2-154" value="&lt;font color=&quot;#0d28f8&quot;&gt;Blue&lt;/font&gt;" style="text;html=1;align=center;verticalAlign=middle;whiteSpace=wrap;rounded=0;fontSize=18;fontColor=#f80d0d;" vertex="1" parent="1">
          <mxGeometry x="940" y="590" width="60" height="30" as="geometry" />
        </mxCell>
        <mxCell id="k-AtxNnL5Cw1fRX9omK2-155" value="-3" style="ellipse;whiteSpace=wrap;html=1;aspect=fixed;fontSize=18;fontStyle=1" vertex="1" parent="1">
          <mxGeometry x="80" y="1170" width="40" height="40" as="geometry" />
        </mxCell>
        <mxCell id="k-AtxNnL5Cw1fRX9omK2-156" value="&lt;b&gt;&lt;font style=&quot;font-size: 18px;&quot;&gt;7&lt;/font&gt;&lt;/b&gt;" style="ellipse;whiteSpace=wrap;html=1;aspect=fixed;" vertex="1" parent="1">
          <mxGeometry x="160" y="1170" width="40" height="40" as="geometry" />
        </mxCell>
        <mxCell id="k-AtxNnL5Cw1fRX9omK2-157" value="2" style="ellipse;whiteSpace=wrap;html=1;aspect=fixed;fontSize=18;fontStyle=1" vertex="1" parent="1">
          <mxGeometry x="240" y="1170" width="40" height="40" as="geometry" />
        </mxCell>
        <mxCell id="k-AtxNnL5Cw1fRX9omK2-158" value="-1" style="ellipse;whiteSpace=wrap;html=1;aspect=fixed;fontSize=18;fontStyle=1" vertex="1" parent="1">
          <mxGeometry x="320" y="1170" width="40" height="40" as="geometry" />
        </mxCell>
        <mxCell id="k-AtxNnL5Cw1fRX9omK2-159" value="-7" style="ellipse;whiteSpace=wrap;html=1;aspect=fixed;fontSize=18;fontStyle=1" vertex="1" parent="1">
          <mxGeometry x="400" y="1170" width="40" height="40" as="geometry" />
        </mxCell>
        <mxCell id="k-AtxNnL5Cw1fRX9omK2-160" value="-3" style="ellipse;whiteSpace=wrap;html=1;aspect=fixed;fontSize=18;fontStyle=1" vertex="1" parent="1">
          <mxGeometry x="480" y="1170" width="40" height="40" as="geometry" />
        </mxCell>
        <mxCell id="k-AtxNnL5Cw1fRX9omK2-161" value="8" style="ellipse;whiteSpace=wrap;html=1;aspect=fixed;fontSize=18;fontStyle=1" vertex="1" parent="1">
          <mxGeometry x="560" y="1170" width="40" height="40" as="geometry" />
        </mxCell>
        <mxCell id="k-AtxNnL5Cw1fRX9omK2-162" value="4" style="ellipse;whiteSpace=wrap;html=1;aspect=fixed;fontSize=18;fontStyle=1" vertex="1" parent="1">
          <mxGeometry x="640" y="1170" width="40" height="40" as="geometry" />
        </mxCell>
        <mxCell id="k-AtxNnL5Cw1fRX9omK2-163" value="" style="ellipse;whiteSpace=wrap;html=1;aspect=fixed;" vertex="1" parent="1">
          <mxGeometry x="120" y="1090" width="40" height="40" as="geometry" />
        </mxCell>
        <mxCell id="k-AtxNnL5Cw1fRX9omK2-164" value="" style="ellipse;whiteSpace=wrap;html=1;aspect=fixed;" vertex="1" parent="1">
          <mxGeometry x="280" y="1090" width="40" height="40" as="geometry" />
        </mxCell>
        <mxCell id="k-AtxNnL5Cw1fRX9omK2-165" value="" style="ellipse;whiteSpace=wrap;html=1;aspect=fixed;" vertex="1" parent="1">
          <mxGeometry x="440" y="1090" width="40" height="40" as="geometry" />
        </mxCell>
        <mxCell id="k-AtxNnL5Cw1fRX9omK2-166" value="" style="ellipse;whiteSpace=wrap;html=1;aspect=fixed;" vertex="1" parent="1">
          <mxGeometry x="600" y="1090" width="40" height="40" as="geometry" />
        </mxCell>
        <mxCell id="k-AtxNnL5Cw1fRX9omK2-167" value="" style="ellipse;whiteSpace=wrap;html=1;aspect=fixed;" vertex="1" parent="1">
          <mxGeometry x="200" y="1010" width="40" height="40" as="geometry" />
        </mxCell>
        <mxCell id="k-AtxNnL5Cw1fRX9omK2-168" value="" style="ellipse;whiteSpace=wrap;html=1;aspect=fixed;fillColor=#fff2cc;strokeColor=#d6b656;" vertex="1" parent="1">
          <mxGeometry x="520" y="1010" width="40" height="40" as="geometry" />
        </mxCell>
        <mxCell id="k-AtxNnL5Cw1fRX9omK2-169" value="" style="ellipse;whiteSpace=wrap;html=1;aspect=fixed;" vertex="1" parent="1">
          <mxGeometry x="360" y="930" width="40" height="40" as="geometry" />
        </mxCell>
        <mxCell id="k-AtxNnL5Cw1fRX9omK2-170" value="" style="endArrow=none;html=1;rounded=0;exitX=1;exitY=0;exitDx=0;exitDy=0;entryX=0;entryY=0.5;entryDx=0;entryDy=0;" edge="1" source="k-AtxNnL5Cw1fRX9omK2-167" target="k-AtxNnL5Cw1fRX9omK2-169" parent="1">
          <mxGeometry width="50" height="50" relative="1" as="geometry">
            <mxPoint x="400" y="1110" as="sourcePoint" />
            <mxPoint x="450" y="1060" as="targetPoint" />
          </mxGeometry>
        </mxCell>
        <mxCell id="k-AtxNnL5Cw1fRX9omK2-171" value="" style="endArrow=none;html=1;rounded=0;exitX=0;exitY=0;exitDx=0;exitDy=0;entryX=1;entryY=0.5;entryDx=0;entryDy=0;" edge="1" source="k-AtxNnL5Cw1fRX9omK2-168" target="k-AtxNnL5Cw1fRX9omK2-169" parent="1">
          <mxGeometry width="50" height="50" relative="1" as="geometry">
            <mxPoint x="400" y="1110" as="sourcePoint" />
            <mxPoint x="450" y="1060" as="targetPoint" />
          </mxGeometry>
        </mxCell>
        <mxCell id="k-AtxNnL5Cw1fRX9omK2-172" value="" style="endArrow=none;html=1;rounded=0;exitX=1;exitY=0;exitDx=0;exitDy=0;entryX=0;entryY=1;entryDx=0;entryDy=0;" edge="1" source="k-AtxNnL5Cw1fRX9omK2-163" target="k-AtxNnL5Cw1fRX9omK2-167" parent="1">
          <mxGeometry width="50" height="50" relative="1" as="geometry">
            <mxPoint x="400" y="1110" as="sourcePoint" />
            <mxPoint x="450" y="1060" as="targetPoint" />
          </mxGeometry>
        </mxCell>
        <mxCell id="k-AtxNnL5Cw1fRX9omK2-173" value="" style="endArrow=none;html=1;rounded=0;exitX=1;exitY=1;exitDx=0;exitDy=0;entryX=0;entryY=0;entryDx=0;entryDy=0;" edge="1" source="k-AtxNnL5Cw1fRX9omK2-167" target="k-AtxNnL5Cw1fRX9omK2-164" parent="1">
          <mxGeometry width="50" height="50" relative="1" as="geometry">
            <mxPoint x="400" y="1110" as="sourcePoint" />
            <mxPoint x="450" y="1060" as="targetPoint" />
          </mxGeometry>
        </mxCell>
        <mxCell id="k-AtxNnL5Cw1fRX9omK2-174" value="" style="endArrow=none;html=1;rounded=0;entryX=0;entryY=1;entryDx=0;entryDy=0;exitX=1;exitY=0;exitDx=0;exitDy=0;" edge="1" source="k-AtxNnL5Cw1fRX9omK2-165" target="k-AtxNnL5Cw1fRX9omK2-168" parent="1">
          <mxGeometry width="50" height="50" relative="1" as="geometry">
            <mxPoint x="400" y="1110" as="sourcePoint" />
            <mxPoint x="450" y="1060" as="targetPoint" />
          </mxGeometry>
        </mxCell>
        <mxCell id="k-AtxNnL5Cw1fRX9omK2-175" value="" style="endArrow=none;html=1;rounded=0;entryX=1;entryY=1;entryDx=0;entryDy=0;exitX=0;exitY=0;exitDx=0;exitDy=0;" edge="1" source="k-AtxNnL5Cw1fRX9omK2-166" target="k-AtxNnL5Cw1fRX9omK2-168" parent="1">
          <mxGeometry width="50" height="50" relative="1" as="geometry">
            <mxPoint x="400" y="1110" as="sourcePoint" />
            <mxPoint x="450" y="1060" as="targetPoint" />
          </mxGeometry>
        </mxCell>
        <mxCell id="k-AtxNnL5Cw1fRX9omK2-176" value="" style="endArrow=none;html=1;rounded=0;exitX=1;exitY=0;exitDx=0;exitDy=0;entryX=0.5;entryY=1;entryDx=0;entryDy=0;" edge="1" source="k-AtxNnL5Cw1fRX9omK2-155" target="k-AtxNnL5Cw1fRX9omK2-163" parent="1">
          <mxGeometry width="50" height="50" relative="1" as="geometry">
            <mxPoint x="400" y="1110" as="sourcePoint" />
            <mxPoint x="450" y="1060" as="targetPoint" />
          </mxGeometry>
        </mxCell>
        <mxCell id="k-AtxNnL5Cw1fRX9omK2-177" value="" style="endArrow=none;html=1;rounded=0;exitX=0;exitY=0;exitDx=0;exitDy=0;entryX=0.5;entryY=1;entryDx=0;entryDy=0;" edge="1" source="k-AtxNnL5Cw1fRX9omK2-156" target="k-AtxNnL5Cw1fRX9omK2-163" parent="1">
          <mxGeometry width="50" height="50" relative="1" as="geometry">
            <mxPoint x="400" y="1110" as="sourcePoint" />
            <mxPoint x="450" y="1060" as="targetPoint" />
          </mxGeometry>
        </mxCell>
        <mxCell id="k-AtxNnL5Cw1fRX9omK2-178" value="" style="endArrow=none;html=1;rounded=0;exitX=0.5;exitY=1;exitDx=0;exitDy=0;entryX=1;entryY=0;entryDx=0;entryDy=0;" edge="1" source="k-AtxNnL5Cw1fRX9omK2-164" target="k-AtxNnL5Cw1fRX9omK2-157" parent="1">
          <mxGeometry width="50" height="50" relative="1" as="geometry">
            <mxPoint x="400" y="1110" as="sourcePoint" />
            <mxPoint x="450" y="1060" as="targetPoint" />
          </mxGeometry>
        </mxCell>
        <mxCell id="k-AtxNnL5Cw1fRX9omK2-179" value="" style="endArrow=none;html=1;rounded=0;exitX=0.5;exitY=1;exitDx=0;exitDy=0;entryX=0;entryY=0;entryDx=0;entryDy=0;" edge="1" source="k-AtxNnL5Cw1fRX9omK2-164" target="k-AtxNnL5Cw1fRX9omK2-158" parent="1">
          <mxGeometry width="50" height="50" relative="1" as="geometry">
            <mxPoint x="400" y="1110" as="sourcePoint" />
            <mxPoint x="450" y="1060" as="targetPoint" />
          </mxGeometry>
        </mxCell>
        <mxCell id="k-AtxNnL5Cw1fRX9omK2-180" value="" style="endArrow=none;html=1;rounded=0;exitX=0.5;exitY=1;exitDx=0;exitDy=0;entryX=0;entryY=0;entryDx=0;entryDy=0;" edge="1" source="k-AtxNnL5Cw1fRX9omK2-165" target="k-AtxNnL5Cw1fRX9omK2-160" parent="1">
          <mxGeometry width="50" height="50" relative="1" as="geometry">
            <mxPoint x="400" y="1110" as="sourcePoint" />
            <mxPoint x="450" y="1060" as="targetPoint" />
          </mxGeometry>
        </mxCell>
        <mxCell id="k-AtxNnL5Cw1fRX9omK2-181" value="" style="endArrow=none;html=1;rounded=0;exitX=1;exitY=0;exitDx=0;exitDy=0;entryX=0.5;entryY=1;entryDx=0;entryDy=0;" edge="1" source="k-AtxNnL5Cw1fRX9omK2-159" target="k-AtxNnL5Cw1fRX9omK2-165" parent="1">
          <mxGeometry width="50" height="50" relative="1" as="geometry">
            <mxPoint x="400" y="1110" as="sourcePoint" />
            <mxPoint x="450" y="1060" as="targetPoint" />
          </mxGeometry>
        </mxCell>
        <mxCell id="k-AtxNnL5Cw1fRX9omK2-182" value="" style="endArrow=none;html=1;rounded=0;exitX=0.5;exitY=1;exitDx=0;exitDy=0;entryX=1;entryY=0;entryDx=0;entryDy=0;" edge="1" source="k-AtxNnL5Cw1fRX9omK2-166" target="k-AtxNnL5Cw1fRX9omK2-161" parent="1">
          <mxGeometry width="50" height="50" relative="1" as="geometry">
            <mxPoint x="400" y="1110" as="sourcePoint" />
            <mxPoint x="450" y="1060" as="targetPoint" />
          </mxGeometry>
        </mxCell>
        <mxCell id="k-AtxNnL5Cw1fRX9omK2-183" value="" style="endArrow=none;html=1;rounded=0;exitX=0.5;exitY=1;exitDx=0;exitDy=0;entryX=0;entryY=0;entryDx=0;entryDy=0;" edge="1" source="k-AtxNnL5Cw1fRX9omK2-166" target="k-AtxNnL5Cw1fRX9omK2-162" parent="1">
          <mxGeometry width="50" height="50" relative="1" as="geometry">
            <mxPoint x="400" y="1110" as="sourcePoint" />
            <mxPoint x="450" y="1060" as="targetPoint" />
          </mxGeometry>
        </mxCell>
        <mxCell id="k-AtxNnL5Cw1fRX9omK2-184" value="Minimax" style="text;html=1;strokeColor=none;fillColor=none;align=center;verticalAlign=middle;whiteSpace=wrap;rounded=0;fontStyle=1;fontSize=18;" vertex="1" parent="1">
          <mxGeometry x="350" y="880" width="60" height="30" as="geometry" />
        </mxCell>
        <mxCell id="k-AtxNnL5Cw1fRX9omK2-185" value="" style="endArrow=none;html=1;rounded=0;fontSize=18;" edge="1" parent="1">
          <mxGeometry width="50" height="50" relative="1" as="geometry">
            <mxPoint x="110" y="990" as="sourcePoint" />
            <mxPoint x="680" y="990" as="targetPoint" />
          </mxGeometry>
        </mxCell>
        <mxCell id="k-AtxNnL5Cw1fRX9omK2-186" value="Max" style="text;html=1;align=center;verticalAlign=middle;whiteSpace=wrap;rounded=0;fontSize=18;fontColor=#f80d0d;" vertex="1" parent="1">
          <mxGeometry x="130" y="935" width="60" height="30" as="geometry" />
        </mxCell>
        <mxCell id="k-AtxNnL5Cw1fRX9omK2-187" value="Max" style="text;html=1;align=center;verticalAlign=middle;whiteSpace=wrap;rounded=0;fontSize=18;fontColor=#f80d0d;" vertex="1" parent="1">
          <mxGeometry x="10" y="1110" width="60" height="30" as="geometry" />
        </mxCell>
        <mxCell id="k-AtxNnL5Cw1fRX9omK2-188" value="" style="endArrow=none;html=1;rounded=0;fontSize=18;" edge="1" parent="1">
          <mxGeometry width="50" height="50" relative="1" as="geometry">
            <mxPoint x="30" y="1070" as="sourcePoint" />
            <mxPoint x="750" y="1070" as="targetPoint" />
          </mxGeometry>
        </mxCell>
        <mxCell id="k-AtxNnL5Cw1fRX9omK2-189" value="" style="endArrow=none;html=1;rounded=0;fontSize=18;" edge="1" parent="1">
          <mxGeometry width="50" height="50" relative="1" as="geometry">
            <mxPoint x="-20" y="1150" as="sourcePoint" />
            <mxPoint x="820" y="1150" as="targetPoint" />
          </mxGeometry>
        </mxCell>
        <mxCell id="k-AtxNnL5Cw1fRX9omK2-190" value="&lt;font color=&quot;#0d28f8&quot;&gt;Min&lt;/font&gt;" style="text;html=1;align=center;verticalAlign=middle;whiteSpace=wrap;rounded=0;fontSize=18;fontColor=#f80d0d;" vertex="1" parent="1">
          <mxGeometry x="50" y="1030" width="60" height="30" as="geometry" />
        </mxCell>
        <mxCell id="k-AtxNnL5Cw1fRX9omK2-191" value="" style="endArrow=none;html=1;rounded=0;fontSize=18;" edge="1" parent="1">
          <mxGeometry width="50" height="50" relative="1" as="geometry">
            <mxPoint x="870" y="710" as="sourcePoint" />
            <mxPoint x="1710" y="710" as="targetPoint" />
          </mxGeometry>
        </mxCell>
        <mxCell id="k-AtxNnL5Cw1fRX9omK2-192" value="" style="ellipse;whiteSpace=wrap;html=1;aspect=fixed;" vertex="1" parent="1">
          <mxGeometry x="360" y="930" width="40" height="40" as="geometry" />
        </mxCell>
        <mxCell id="k-AtxNnL5Cw1fRX9omK2-193" value="" style="ellipse;whiteSpace=wrap;html=1;aspect=fixed;" vertex="1" parent="1">
          <mxGeometry x="200" y="1010" width="40" height="40" as="geometry" />
        </mxCell>
        <mxCell id="k-AtxNnL5Cw1fRX9omK2-194" value="" style="ellipse;whiteSpace=wrap;html=1;aspect=fixed;" vertex="1" parent="1">
          <mxGeometry x="120" y="1090" width="40" height="40" as="geometry" />
        </mxCell>
        <mxCell id="k-AtxNnL5Cw1fRX9omK2-195" value="" style="ellipse;whiteSpace=wrap;html=1;aspect=fixed;" vertex="1" parent="1">
          <mxGeometry x="280" y="1090" width="40" height="40" as="geometry" />
        </mxCell>
        <mxCell id="k-AtxNnL5Cw1fRX9omK2-196" value="-3" style="ellipse;whiteSpace=wrap;html=1;aspect=fixed;fontSize=18;fontStyle=1" vertex="1" parent="1">
          <mxGeometry x="80" y="1170" width="40" height="40" as="geometry" />
        </mxCell>
        <mxCell id="k-AtxNnL5Cw1fRX9omK2-197" value="&lt;b&gt;&lt;font style=&quot;font-size: 18px;&quot;&gt;7&lt;/font&gt;&lt;/b&gt;" style="ellipse;whiteSpace=wrap;html=1;aspect=fixed;" vertex="1" parent="1">
          <mxGeometry x="160" y="1170" width="40" height="40" as="geometry" />
        </mxCell>
        <mxCell id="k-AtxNnL5Cw1fRX9omK2-198" value="2" style="ellipse;whiteSpace=wrap;html=1;aspect=fixed;fontSize=18;fontStyle=1" vertex="1" parent="1">
          <mxGeometry x="240" y="1170" width="40" height="40" as="geometry" />
        </mxCell>
        <mxCell id="k-AtxNnL5Cw1fRX9omK2-199" value="-1" style="ellipse;whiteSpace=wrap;html=1;aspect=fixed;fontSize=18;fontStyle=1" vertex="1" parent="1">
          <mxGeometry x="320" y="1170" width="40" height="40" as="geometry" />
        </mxCell>
        <mxCell id="k-AtxNnL5Cw1fRX9omK2-200" value="" style="ellipse;whiteSpace=wrap;html=1;aspect=fixed;" vertex="1" parent="1">
          <mxGeometry x="440" y="1090" width="40" height="40" as="geometry" />
        </mxCell>
        <mxCell id="k-AtxNnL5Cw1fRX9omK2-201" value="-7" style="ellipse;whiteSpace=wrap;html=1;aspect=fixed;fontSize=18;fontStyle=1" vertex="1" parent="1">
          <mxGeometry x="400" y="1170" width="40" height="40" as="geometry" />
        </mxCell>
        <mxCell id="k-AtxNnL5Cw1fRX9omK2-202" value="-3" style="ellipse;whiteSpace=wrap;html=1;aspect=fixed;fontSize=18;fontStyle=1" vertex="1" parent="1">
          <mxGeometry x="480" y="1170" width="40" height="40" as="geometry" />
        </mxCell>
        <mxCell id="k-AtxNnL5Cw1fRX9omK2-203" value="" style="ellipse;whiteSpace=wrap;html=1;aspect=fixed;fillColor=#fff2cc;strokeColor=#d6b656;" vertex="1" parent="1">
          <mxGeometry x="360" y="930" width="40" height="40" as="geometry" />
        </mxCell>
        <mxCell id="k-AtxNnL5Cw1fRX9omK2-204" value="" style="ellipse;whiteSpace=wrap;html=1;aspect=fixed;fillColor=#fff2cc;strokeColor=#d6b656;" vertex="1" parent="1">
          <mxGeometry x="200" y="1010" width="40" height="40" as="geometry" />
        </mxCell>
        <mxCell id="k-AtxNnL5Cw1fRX9omK2-205" value="" style="ellipse;whiteSpace=wrap;html=1;aspect=fixed;fillColor=#fff2cc;strokeColor=#d6b656;" vertex="1" parent="1">
          <mxGeometry x="120" y="1090" width="40" height="40" as="geometry" />
        </mxCell>
        <mxCell id="k-AtxNnL5Cw1fRX9omK2-206" value="" style="ellipse;whiteSpace=wrap;html=1;aspect=fixed;fillColor=#fff2cc;strokeColor=#d6b656;" vertex="1" parent="1">
          <mxGeometry x="280" y="1090" width="40" height="40" as="geometry" />
        </mxCell>
        <mxCell id="k-AtxNnL5Cw1fRX9omK2-207" value="-3" style="ellipse;whiteSpace=wrap;html=1;aspect=fixed;fontSize=18;fontStyle=1;fillColor=#fff2cc;strokeColor=#d6b656;" vertex="1" parent="1">
          <mxGeometry x="80" y="1170" width="40" height="40" as="geometry" />
        </mxCell>
        <mxCell id="k-AtxNnL5Cw1fRX9omK2-208" value="&lt;b&gt;&lt;font style=&quot;font-size: 18px;&quot;&gt;7&lt;/font&gt;&lt;/b&gt;" style="ellipse;whiteSpace=wrap;html=1;aspect=fixed;fillColor=#fff2cc;strokeColor=#d6b656;" vertex="1" parent="1">
          <mxGeometry x="160" y="1170" width="40" height="40" as="geometry" />
        </mxCell>
        <mxCell id="k-AtxNnL5Cw1fRX9omK2-209" value="2" style="ellipse;whiteSpace=wrap;html=1;aspect=fixed;fontSize=18;fontStyle=1;fillColor=#fff2cc;strokeColor=#d6b656;" vertex="1" parent="1">
          <mxGeometry x="240" y="1170" width="40" height="40" as="geometry" />
        </mxCell>
        <mxCell id="k-AtxNnL5Cw1fRX9omK2-210" value="-1" style="ellipse;whiteSpace=wrap;html=1;aspect=fixed;fontSize=18;fontStyle=1;fillColor=#fff2cc;strokeColor=#d6b656;" vertex="1" parent="1">
          <mxGeometry x="320" y="1170" width="40" height="40" as="geometry" />
        </mxCell>
        <mxCell id="k-AtxNnL5Cw1fRX9omK2-211" value="" style="ellipse;whiteSpace=wrap;html=1;aspect=fixed;fillColor=#fff2cc;strokeColor=#d6b656;" vertex="1" parent="1">
          <mxGeometry x="440" y="1090" width="40" height="40" as="geometry" />
        </mxCell>
        <mxCell id="k-AtxNnL5Cw1fRX9omK2-212" value="-7" style="ellipse;whiteSpace=wrap;html=1;aspect=fixed;fontSize=18;fontStyle=1;fillColor=#fff2cc;strokeColor=#d6b656;" vertex="1" parent="1">
          <mxGeometry x="400" y="1170" width="40" height="40" as="geometry" />
        </mxCell>
        <mxCell id="k-AtxNnL5Cw1fRX9omK2-213" value="-3" style="ellipse;whiteSpace=wrap;html=1;aspect=fixed;fontSize=18;fontStyle=1;fillColor=#fff2cc;strokeColor=#d6b656;" vertex="1" parent="1">
          <mxGeometry x="480" y="1170" width="40" height="40" as="geometry" />
        </mxCell>
        <mxCell id="k-AtxNnL5Cw1fRX9omK2-214" value="" style="ellipse;whiteSpace=wrap;html=1;aspect=fixed;fillColor=#fff2cc;strokeColor=#d6b656;" vertex="1" parent="1">
          <mxGeometry x="600" y="1090" width="40" height="40" as="geometry" />
        </mxCell>
        <mxCell id="k-AtxNnL5Cw1fRX9omK2-215" value="8" style="ellipse;whiteSpace=wrap;html=1;aspect=fixed;fontSize=18;fontStyle=1;fillColor=#fff2cc;strokeColor=#d6b656;" vertex="1" parent="1">
          <mxGeometry x="560" y="1170" width="40" height="40" as="geometry" />
        </mxCell>
        <mxCell id="k-AtxNnL5Cw1fRX9omK2-216" value="4" style="ellipse;whiteSpace=wrap;html=1;aspect=fixed;fontSize=18;fontStyle=1;fillColor=#fff2cc;strokeColor=#d6b656;" vertex="1" parent="1">
          <mxGeometry x="640" y="1170" width="40" height="40" as="geometry" />
        </mxCell>
        <mxCell id="k-AtxNnL5Cw1fRX9omK2-221" value="-3" style="ellipse;whiteSpace=wrap;html=1;aspect=fixed;fontSize=18;fontStyle=1" vertex="1" parent="1">
          <mxGeometry x="70" y="1610" width="40" height="40" as="geometry" />
        </mxCell>
        <mxCell id="k-AtxNnL5Cw1fRX9omK2-222" value="&lt;b&gt;&lt;font style=&quot;font-size: 18px;&quot;&gt;7&lt;/font&gt;&lt;/b&gt;" style="ellipse;whiteSpace=wrap;html=1;aspect=fixed;" vertex="1" parent="1">
          <mxGeometry x="150" y="1610" width="40" height="40" as="geometry" />
        </mxCell>
        <mxCell id="k-AtxNnL5Cw1fRX9omK2-223" value="2" style="ellipse;whiteSpace=wrap;html=1;aspect=fixed;fontSize=18;fontStyle=1" vertex="1" parent="1">
          <mxGeometry x="230" y="1610" width="40" height="40" as="geometry" />
        </mxCell>
        <mxCell id="k-AtxNnL5Cw1fRX9omK2-224" value="-1" style="ellipse;whiteSpace=wrap;html=1;aspect=fixed;fontSize=18;fontStyle=1" vertex="1" parent="1">
          <mxGeometry x="310" y="1610" width="40" height="40" as="geometry" />
        </mxCell>
        <mxCell id="k-AtxNnL5Cw1fRX9omK2-225" value="-7" style="ellipse;whiteSpace=wrap;html=1;aspect=fixed;fontSize=18;fontStyle=1" vertex="1" parent="1">
          <mxGeometry x="390" y="1610" width="40" height="40" as="geometry" />
        </mxCell>
        <mxCell id="k-AtxNnL5Cw1fRX9omK2-226" value="-3" style="ellipse;whiteSpace=wrap;html=1;aspect=fixed;fontSize=18;fontStyle=1" vertex="1" parent="1">
          <mxGeometry x="470" y="1610" width="40" height="40" as="geometry" />
        </mxCell>
        <mxCell id="k-AtxNnL5Cw1fRX9omK2-227" value="8" style="ellipse;whiteSpace=wrap;html=1;aspect=fixed;fontSize=18;fontStyle=1" vertex="1" parent="1">
          <mxGeometry x="550" y="1610" width="40" height="40" as="geometry" />
        </mxCell>
        <mxCell id="k-AtxNnL5Cw1fRX9omK2-228" value="4" style="ellipse;whiteSpace=wrap;html=1;aspect=fixed;fontSize=18;fontStyle=1" vertex="1" parent="1">
          <mxGeometry x="630" y="1610" width="40" height="40" as="geometry" />
        </mxCell>
        <mxCell id="k-AtxNnL5Cw1fRX9omK2-229" value="" style="ellipse;whiteSpace=wrap;html=1;aspect=fixed;" vertex="1" parent="1">
          <mxGeometry x="110" y="1530" width="40" height="40" as="geometry" />
        </mxCell>
        <mxCell id="k-AtxNnL5Cw1fRX9omK2-230" value="" style="ellipse;whiteSpace=wrap;html=1;aspect=fixed;" vertex="1" parent="1">
          <mxGeometry x="270" y="1530" width="40" height="40" as="geometry" />
        </mxCell>
        <mxCell id="k-AtxNnL5Cw1fRX9omK2-231" value="" style="ellipse;whiteSpace=wrap;html=1;aspect=fixed;" vertex="1" parent="1">
          <mxGeometry x="430" y="1530" width="40" height="40" as="geometry" />
        </mxCell>
        <mxCell id="k-AtxNnL5Cw1fRX9omK2-232" value="" style="ellipse;whiteSpace=wrap;html=1;aspect=fixed;" vertex="1" parent="1">
          <mxGeometry x="590" y="1530" width="40" height="40" as="geometry" />
        </mxCell>
        <mxCell id="k-AtxNnL5Cw1fRX9omK2-233" value="" style="ellipse;whiteSpace=wrap;html=1;aspect=fixed;" vertex="1" parent="1">
          <mxGeometry x="190" y="1450" width="40" height="40" as="geometry" />
        </mxCell>
        <mxCell id="k-AtxNnL5Cw1fRX9omK2-234" value="" style="ellipse;whiteSpace=wrap;html=1;aspect=fixed;fillColor=#fff2cc;strokeColor=#d6b656;" vertex="1" parent="1">
          <mxGeometry x="510" y="1450" width="40" height="40" as="geometry" />
        </mxCell>
        <mxCell id="k-AtxNnL5Cw1fRX9omK2-235" value="" style="ellipse;whiteSpace=wrap;html=1;aspect=fixed;" vertex="1" parent="1">
          <mxGeometry x="350" y="1370" width="40" height="40" as="geometry" />
        </mxCell>
        <mxCell id="k-AtxNnL5Cw1fRX9omK2-236" value="" style="endArrow=none;html=1;rounded=0;exitX=1;exitY=0;exitDx=0;exitDy=0;entryX=0;entryY=0.5;entryDx=0;entryDy=0;" edge="1" source="k-AtxNnL5Cw1fRX9omK2-233" target="k-AtxNnL5Cw1fRX9omK2-235" parent="1">
          <mxGeometry width="50" height="50" relative="1" as="geometry">
            <mxPoint x="390" y="1550" as="sourcePoint" />
            <mxPoint x="440" y="1500" as="targetPoint" />
          </mxGeometry>
        </mxCell>
        <mxCell id="k-AtxNnL5Cw1fRX9omK2-237" value="" style="endArrow=none;html=1;rounded=0;exitX=0;exitY=0;exitDx=0;exitDy=0;entryX=1;entryY=0.5;entryDx=0;entryDy=0;" edge="1" source="k-AtxNnL5Cw1fRX9omK2-234" target="k-AtxNnL5Cw1fRX9omK2-235" parent="1">
          <mxGeometry width="50" height="50" relative="1" as="geometry">
            <mxPoint x="390" y="1550" as="sourcePoint" />
            <mxPoint x="440" y="1500" as="targetPoint" />
          </mxGeometry>
        </mxCell>
        <mxCell id="k-AtxNnL5Cw1fRX9omK2-238" value="" style="endArrow=none;html=1;rounded=0;exitX=1;exitY=0;exitDx=0;exitDy=0;entryX=0;entryY=1;entryDx=0;entryDy=0;" edge="1" source="k-AtxNnL5Cw1fRX9omK2-229" target="k-AtxNnL5Cw1fRX9omK2-233" parent="1">
          <mxGeometry width="50" height="50" relative="1" as="geometry">
            <mxPoint x="390" y="1550" as="sourcePoint" />
            <mxPoint x="440" y="1500" as="targetPoint" />
          </mxGeometry>
        </mxCell>
        <mxCell id="k-AtxNnL5Cw1fRX9omK2-239" value="" style="endArrow=none;html=1;rounded=0;exitX=1;exitY=1;exitDx=0;exitDy=0;entryX=0;entryY=0;entryDx=0;entryDy=0;" edge="1" source="k-AtxNnL5Cw1fRX9omK2-233" target="k-AtxNnL5Cw1fRX9omK2-230" parent="1">
          <mxGeometry width="50" height="50" relative="1" as="geometry">
            <mxPoint x="390" y="1550" as="sourcePoint" />
            <mxPoint x="440" y="1500" as="targetPoint" />
          </mxGeometry>
        </mxCell>
        <mxCell id="k-AtxNnL5Cw1fRX9omK2-240" value="" style="endArrow=none;html=1;rounded=0;entryX=0;entryY=1;entryDx=0;entryDy=0;exitX=1;exitY=0;exitDx=0;exitDy=0;" edge="1" source="k-AtxNnL5Cw1fRX9omK2-231" target="k-AtxNnL5Cw1fRX9omK2-234" parent="1">
          <mxGeometry width="50" height="50" relative="1" as="geometry">
            <mxPoint x="390" y="1550" as="sourcePoint" />
            <mxPoint x="440" y="1500" as="targetPoint" />
          </mxGeometry>
        </mxCell>
        <mxCell id="k-AtxNnL5Cw1fRX9omK2-241" value="" style="endArrow=none;html=1;rounded=0;entryX=1;entryY=1;entryDx=0;entryDy=0;exitX=0;exitY=0;exitDx=0;exitDy=0;" edge="1" source="k-AtxNnL5Cw1fRX9omK2-232" target="k-AtxNnL5Cw1fRX9omK2-234" parent="1">
          <mxGeometry width="50" height="50" relative="1" as="geometry">
            <mxPoint x="390" y="1550" as="sourcePoint" />
            <mxPoint x="440" y="1500" as="targetPoint" />
          </mxGeometry>
        </mxCell>
        <mxCell id="k-AtxNnL5Cw1fRX9omK2-242" value="" style="endArrow=none;html=1;rounded=0;exitX=1;exitY=0;exitDx=0;exitDy=0;entryX=0.5;entryY=1;entryDx=0;entryDy=0;" edge="1" source="k-AtxNnL5Cw1fRX9omK2-221" target="k-AtxNnL5Cw1fRX9omK2-229" parent="1">
          <mxGeometry width="50" height="50" relative="1" as="geometry">
            <mxPoint x="390" y="1550" as="sourcePoint" />
            <mxPoint x="440" y="1500" as="targetPoint" />
          </mxGeometry>
        </mxCell>
        <mxCell id="k-AtxNnL5Cw1fRX9omK2-243" value="" style="endArrow=none;html=1;rounded=0;exitX=0;exitY=0;exitDx=0;exitDy=0;entryX=0.5;entryY=1;entryDx=0;entryDy=0;" edge="1" source="k-AtxNnL5Cw1fRX9omK2-222" target="k-AtxNnL5Cw1fRX9omK2-229" parent="1">
          <mxGeometry width="50" height="50" relative="1" as="geometry">
            <mxPoint x="390" y="1550" as="sourcePoint" />
            <mxPoint x="440" y="1500" as="targetPoint" />
          </mxGeometry>
        </mxCell>
        <mxCell id="k-AtxNnL5Cw1fRX9omK2-244" value="" style="endArrow=none;html=1;rounded=0;exitX=0.5;exitY=1;exitDx=0;exitDy=0;entryX=1;entryY=0;entryDx=0;entryDy=0;" edge="1" source="k-AtxNnL5Cw1fRX9omK2-230" target="k-AtxNnL5Cw1fRX9omK2-223" parent="1">
          <mxGeometry width="50" height="50" relative="1" as="geometry">
            <mxPoint x="390" y="1550" as="sourcePoint" />
            <mxPoint x="440" y="1500" as="targetPoint" />
          </mxGeometry>
        </mxCell>
        <mxCell id="k-AtxNnL5Cw1fRX9omK2-245" value="" style="endArrow=none;html=1;rounded=0;exitX=0.5;exitY=1;exitDx=0;exitDy=0;entryX=0;entryY=0;entryDx=0;entryDy=0;" edge="1" source="k-AtxNnL5Cw1fRX9omK2-230" target="k-AtxNnL5Cw1fRX9omK2-224" parent="1">
          <mxGeometry width="50" height="50" relative="1" as="geometry">
            <mxPoint x="390" y="1550" as="sourcePoint" />
            <mxPoint x="440" y="1500" as="targetPoint" />
          </mxGeometry>
        </mxCell>
        <mxCell id="k-AtxNnL5Cw1fRX9omK2-246" value="" style="endArrow=none;html=1;rounded=0;exitX=0.5;exitY=1;exitDx=0;exitDy=0;entryX=0;entryY=0;entryDx=0;entryDy=0;" edge="1" source="k-AtxNnL5Cw1fRX9omK2-231" target="k-AtxNnL5Cw1fRX9omK2-226" parent="1">
          <mxGeometry width="50" height="50" relative="1" as="geometry">
            <mxPoint x="390" y="1550" as="sourcePoint" />
            <mxPoint x="440" y="1500" as="targetPoint" />
          </mxGeometry>
        </mxCell>
        <mxCell id="k-AtxNnL5Cw1fRX9omK2-247" value="" style="endArrow=none;html=1;rounded=0;exitX=1;exitY=0;exitDx=0;exitDy=0;entryX=0.5;entryY=1;entryDx=0;entryDy=0;" edge="1" source="k-AtxNnL5Cw1fRX9omK2-225" target="k-AtxNnL5Cw1fRX9omK2-231" parent="1">
          <mxGeometry width="50" height="50" relative="1" as="geometry">
            <mxPoint x="390" y="1550" as="sourcePoint" />
            <mxPoint x="440" y="1500" as="targetPoint" />
          </mxGeometry>
        </mxCell>
        <mxCell id="k-AtxNnL5Cw1fRX9omK2-248" value="" style="endArrow=none;html=1;rounded=0;exitX=0.5;exitY=1;exitDx=0;exitDy=0;entryX=1;entryY=0;entryDx=0;entryDy=0;" edge="1" source="k-AtxNnL5Cw1fRX9omK2-232" target="k-AtxNnL5Cw1fRX9omK2-227" parent="1">
          <mxGeometry width="50" height="50" relative="1" as="geometry">
            <mxPoint x="390" y="1550" as="sourcePoint" />
            <mxPoint x="440" y="1500" as="targetPoint" />
          </mxGeometry>
        </mxCell>
        <mxCell id="k-AtxNnL5Cw1fRX9omK2-249" value="" style="endArrow=none;html=1;rounded=0;exitX=0.5;exitY=1;exitDx=0;exitDy=0;entryX=0;entryY=0;entryDx=0;entryDy=0;" edge="1" source="k-AtxNnL5Cw1fRX9omK2-232" target="k-AtxNnL5Cw1fRX9omK2-228" parent="1">
          <mxGeometry width="50" height="50" relative="1" as="geometry">
            <mxPoint x="390" y="1550" as="sourcePoint" />
            <mxPoint x="440" y="1500" as="targetPoint" />
          </mxGeometry>
        </mxCell>
        <mxCell id="k-AtxNnL5Cw1fRX9omK2-250" value="Alpha-beta" style="text;html=1;strokeColor=none;fillColor=none;align=center;verticalAlign=middle;whiteSpace=wrap;rounded=0;fontStyle=1;fontSize=18;" vertex="1" parent="1">
          <mxGeometry x="310" y="1320" width="110" height="30" as="geometry" />
        </mxCell>
        <mxCell id="k-AtxNnL5Cw1fRX9omK2-251" value="" style="endArrow=none;html=1;rounded=0;fontSize=18;" edge="1" parent="1">
          <mxGeometry width="50" height="50" relative="1" as="geometry">
            <mxPoint x="100" y="1430" as="sourcePoint" />
            <mxPoint x="670" y="1430" as="targetPoint" />
          </mxGeometry>
        </mxCell>
        <mxCell id="k-AtxNnL5Cw1fRX9omK2-252" value="Max" style="text;html=1;align=center;verticalAlign=middle;whiteSpace=wrap;rounded=0;fontSize=18;fontColor=#f80d0d;" vertex="1" parent="1">
          <mxGeometry x="120" y="1375" width="60" height="30" as="geometry" />
        </mxCell>
        <mxCell id="k-AtxNnL5Cw1fRX9omK2-253" value="Max" style="text;html=1;align=center;verticalAlign=middle;whiteSpace=wrap;rounded=0;fontSize=18;fontColor=#f80d0d;" vertex="1" parent="1">
          <mxGeometry y="1550" width="60" height="30" as="geometry" />
        </mxCell>
        <mxCell id="k-AtxNnL5Cw1fRX9omK2-254" value="" style="endArrow=none;html=1;rounded=0;fontSize=18;" edge="1" parent="1">
          <mxGeometry width="50" height="50" relative="1" as="geometry">
            <mxPoint x="20" y="1510" as="sourcePoint" />
            <mxPoint x="740" y="1510" as="targetPoint" />
          </mxGeometry>
        </mxCell>
        <mxCell id="k-AtxNnL5Cw1fRX9omK2-255" value="&lt;font color=&quot;#0d28f8&quot;&gt;Min&lt;/font&gt;" style="text;html=1;align=center;verticalAlign=middle;whiteSpace=wrap;rounded=0;fontSize=18;fontColor=#f80d0d;" vertex="1" parent="1">
          <mxGeometry x="40" y="1470" width="60" height="30" as="geometry" />
        </mxCell>
        <mxCell id="k-AtxNnL5Cw1fRX9omK2-256" value="" style="ellipse;whiteSpace=wrap;html=1;aspect=fixed;" vertex="1" parent="1">
          <mxGeometry x="350" y="1370" width="40" height="40" as="geometry" />
        </mxCell>
        <mxCell id="k-AtxNnL5Cw1fRX9omK2-257" value="" style="ellipse;whiteSpace=wrap;html=1;aspect=fixed;" vertex="1" parent="1">
          <mxGeometry x="190" y="1450" width="40" height="40" as="geometry" />
        </mxCell>
        <mxCell id="k-AtxNnL5Cw1fRX9omK2-258" value="" style="ellipse;whiteSpace=wrap;html=1;aspect=fixed;" vertex="1" parent="1">
          <mxGeometry x="110" y="1530" width="40" height="40" as="geometry" />
        </mxCell>
        <mxCell id="k-AtxNnL5Cw1fRX9omK2-259" value="" style="ellipse;whiteSpace=wrap;html=1;aspect=fixed;" vertex="1" parent="1">
          <mxGeometry x="270" y="1530" width="40" height="40" as="geometry" />
        </mxCell>
        <mxCell id="k-AtxNnL5Cw1fRX9omK2-260" value="-3" style="ellipse;whiteSpace=wrap;html=1;aspect=fixed;fontSize=18;fontStyle=1" vertex="1" parent="1">
          <mxGeometry x="70" y="1610" width="40" height="40" as="geometry" />
        </mxCell>
        <mxCell id="k-AtxNnL5Cw1fRX9omK2-261" value="&lt;b&gt;&lt;font style=&quot;font-size: 18px;&quot;&gt;7&lt;/font&gt;&lt;/b&gt;" style="ellipse;whiteSpace=wrap;html=1;aspect=fixed;" vertex="1" parent="1">
          <mxGeometry x="150" y="1610" width="40" height="40" as="geometry" />
        </mxCell>
        <mxCell id="k-AtxNnL5Cw1fRX9omK2-262" value="2" style="ellipse;whiteSpace=wrap;html=1;aspect=fixed;fontSize=18;fontStyle=1" vertex="1" parent="1">
          <mxGeometry x="230" y="1610" width="40" height="40" as="geometry" />
        </mxCell>
        <mxCell id="k-AtxNnL5Cw1fRX9omK2-263" value="-1" style="ellipse;whiteSpace=wrap;html=1;aspect=fixed;fontSize=18;fontStyle=1" vertex="1" parent="1">
          <mxGeometry x="310" y="1610" width="40" height="40" as="geometry" />
        </mxCell>
        <mxCell id="k-AtxNnL5Cw1fRX9omK2-264" value="" style="ellipse;whiteSpace=wrap;html=1;aspect=fixed;" vertex="1" parent="1">
          <mxGeometry x="430" y="1530" width="40" height="40" as="geometry" />
        </mxCell>
        <mxCell id="k-AtxNnL5Cw1fRX9omK2-265" value="-7" style="ellipse;whiteSpace=wrap;html=1;aspect=fixed;fontSize=18;fontStyle=1" vertex="1" parent="1">
          <mxGeometry x="390" y="1610" width="40" height="40" as="geometry" />
        </mxCell>
        <mxCell id="k-AtxNnL5Cw1fRX9omK2-266" value="-3" style="ellipse;whiteSpace=wrap;html=1;aspect=fixed;fontSize=18;fontStyle=1" vertex="1" parent="1">
          <mxGeometry x="470" y="1610" width="40" height="40" as="geometry" />
        </mxCell>
        <mxCell id="k-AtxNnL5Cw1fRX9omK2-267" value="" style="ellipse;whiteSpace=wrap;html=1;aspect=fixed;fillColor=#fff2cc;strokeColor=#d6b656;" vertex="1" parent="1">
          <mxGeometry x="350" y="1370" width="40" height="40" as="geometry" />
        </mxCell>
        <mxCell id="k-AtxNnL5Cw1fRX9omK2-268" value="" style="ellipse;whiteSpace=wrap;html=1;aspect=fixed;fillColor=#fff2cc;strokeColor=#d6b656;" vertex="1" parent="1">
          <mxGeometry x="190" y="1450" width="40" height="40" as="geometry" />
        </mxCell>
        <mxCell id="k-AtxNnL5Cw1fRX9omK2-269" value="" style="ellipse;whiteSpace=wrap;html=1;aspect=fixed;fillColor=#fff2cc;strokeColor=#d6b656;" vertex="1" parent="1">
          <mxGeometry x="110" y="1530" width="40" height="40" as="geometry" />
        </mxCell>
        <mxCell id="k-AtxNnL5Cw1fRX9omK2-270" value="" style="ellipse;whiteSpace=wrap;html=1;aspect=fixed;fillColor=#fff2cc;strokeColor=#d6b656;" vertex="1" parent="1">
          <mxGeometry x="270" y="1530" width="40" height="40" as="geometry" />
        </mxCell>
        <mxCell id="k-AtxNnL5Cw1fRX9omK2-271" value="-3" style="ellipse;whiteSpace=wrap;html=1;aspect=fixed;fontSize=18;fontStyle=1;fillColor=#fff2cc;strokeColor=#d6b656;" vertex="1" parent="1">
          <mxGeometry x="70" y="1610" width="40" height="40" as="geometry" />
        </mxCell>
        <mxCell id="k-AtxNnL5Cw1fRX9omK2-272" value="&lt;b&gt;&lt;font style=&quot;font-size: 18px;&quot;&gt;7&lt;/font&gt;&lt;/b&gt;" style="ellipse;whiteSpace=wrap;html=1;aspect=fixed;fillColor=#fff2cc;strokeColor=#d6b656;" vertex="1" parent="1">
          <mxGeometry x="150" y="1610" width="40" height="40" as="geometry" />
        </mxCell>
        <mxCell id="k-AtxNnL5Cw1fRX9omK2-273" value="2" style="ellipse;whiteSpace=wrap;html=1;aspect=fixed;fontSize=18;fontStyle=1;fillColor=#fff2cc;strokeColor=#d6b656;" vertex="1" parent="1">
          <mxGeometry x="230" y="1610" width="40" height="40" as="geometry" />
        </mxCell>
        <mxCell id="k-AtxNnL5Cw1fRX9omK2-274" value="-1" style="ellipse;whiteSpace=wrap;html=1;aspect=fixed;fontSize=18;fontStyle=1;fillColor=#fff2cc;strokeColor=#d6b656;" vertex="1" parent="1">
          <mxGeometry x="310" y="1610" width="40" height="40" as="geometry" />
        </mxCell>
        <mxCell id="k-AtxNnL5Cw1fRX9omK2-275" value="" style="ellipse;whiteSpace=wrap;html=1;aspect=fixed;fillColor=#fff2cc;strokeColor=#d6b656;" vertex="1" parent="1">
          <mxGeometry x="430" y="1530" width="40" height="40" as="geometry" />
        </mxCell>
        <mxCell id="k-AtxNnL5Cw1fRX9omK2-276" value="-7" style="ellipse;whiteSpace=wrap;html=1;aspect=fixed;fontSize=18;fontStyle=1;fillColor=#fff2cc;strokeColor=#d6b656;" vertex="1" parent="1">
          <mxGeometry x="390" y="1610" width="40" height="40" as="geometry" />
        </mxCell>
        <mxCell id="k-AtxNnL5Cw1fRX9omK2-277" value="-3" style="ellipse;whiteSpace=wrap;html=1;aspect=fixed;fontSize=18;fontStyle=1;fillColor=#fff2cc;strokeColor=#d6b656;" vertex="1" parent="1">
          <mxGeometry x="470" y="1610" width="40" height="40" as="geometry" />
        </mxCell>
        <mxCell id="k-AtxNnL5Cw1fRX9omK2-278" value="" style="ellipse;whiteSpace=wrap;html=1;aspect=fixed;fillColor=#fff2cc;strokeColor=#d6b656;" vertex="1" parent="1">
          <mxGeometry x="590" y="1530" width="40" height="40" as="geometry" />
        </mxCell>
        <mxCell id="k-AtxNnL5Cw1fRX9omK2-279" value="8" style="ellipse;whiteSpace=wrap;html=1;aspect=fixed;fontSize=18;fontStyle=1;fillColor=#fff2cc;strokeColor=#d6b656;" vertex="1" parent="1">
          <mxGeometry x="550" y="1610" width="40" height="40" as="geometry" />
        </mxCell>
        <mxCell id="k-AtxNnL5Cw1fRX9omK2-280" value="4" style="ellipse;whiteSpace=wrap;html=1;aspect=fixed;fontSize=18;fontStyle=1;fillColor=#fff2cc;strokeColor=#d6b656;" vertex="1" parent="1">
          <mxGeometry x="630" y="1610" width="40" height="40" as="geometry" />
        </mxCell>
        <mxCell id="k-AtxNnL5Cw1fRX9omK2-281" value="" style="endArrow=none;html=1;rounded=0;fontSize=18;" edge="1" parent="1">
          <mxGeometry width="50" height="50" relative="1" as="geometry">
            <mxPoint x="-50" y="1950" as="sourcePoint" />
            <mxPoint x="790" y="1950" as="targetPoint" />
          </mxGeometry>
        </mxCell>
        <mxCell id="k-AtxNnL5Cw1fRX9omK2-282" value="" style="endArrow=none;html=1;rounded=0;fontSize=18;" edge="1" parent="1">
          <mxGeometry width="50" height="50" relative="1" as="geometry">
            <mxPoint x="-40" y="1600" as="sourcePoint" />
            <mxPoint x="800" y="1600" as="targetPoint" />
          </mxGeometry>
        </mxCell>
        <mxCell id="k-AtxNnL5Cw1fRX9omK2-283" value="&lt;font color=&quot;#f80d0d&quot;&gt;Alpha: &lt;/font&gt;&lt;font color=&quot;#0f0f0f&quot;&gt;-oo&lt;/font&gt;" style="text;html=1;strokeColor=none;fillColor=none;align=center;verticalAlign=middle;whiteSpace=wrap;rounded=0;fontSize=18;fontColor=#0d28f8;" vertex="1" parent="1">
          <mxGeometry x="440" y="1290" width="120" height="30" as="geometry" />
        </mxCell>
        <mxCell id="k-AtxNnL5Cw1fRX9omK2-284" value="&lt;font color=&quot;#0d1cf8&quot;&gt;Beta&lt;/font&gt;:&lt;font color=&quot;#f80d0d&quot;&gt;&amp;nbsp;&lt;/font&gt;&lt;font color=&quot;#0f0f0f&quot;&gt;+oo&lt;/font&gt;" style="text;html=1;strokeColor=none;fillColor=none;align=center;verticalAlign=middle;whiteSpace=wrap;rounded=0;fontSize=18;fontColor=#0d28f8;" vertex="1" parent="1">
          <mxGeometry x="440" y="1320" width="120" height="30" as="geometry" />
        </mxCell>
      </root>
    </mxGraphModel>
  </diagram>
</mxfile>
